<?xml version="1.0" encoding="UTF-8" standalone="no"?>
<!-- Generator: Adobe Illustrator 14.0.0, SVG Export Plug-In . SVG Version: 6.00 Build 43363)  -->

<svg
   version="1.1"
   id="svg2"
   sodipodi:docname="emarhavil-logo-only.svg"
   inkscape:export-xdpi="14.0625"
   inkscape:export-ydpi="14.0625"
   inkscape:version="1.3 (1:1.3+202307231459+0e150ed6c4)"
   sodipodi:version="0.32"
   inkscape:output_extension="org.inkscape.output.svg.inkscape"
   inkscape:export-filename="/Users/joshua/emarhavil2.png"
   x="0px"
   y="0px"
   width="6cm"
   height="6cm"
   viewBox="0 0 226.77165 226.77165"
   enable-background="new 0 0 3308 768"
   xml:space="preserve"
   xmlns:inkscape="http://www.inkscape.org/namespaces/inkscape"
   xmlns:sodipodi="http://sodipodi.sourceforge.net/DTD/sodipodi-0.dtd"
   xmlns="http://www.w3.org/2000/svg"
   xmlns:svg="http://www.w3.org/2000/svg">&#10;<defs
   id="defs1">&#10;	&#10;	&#10;		<inkscape:perspective
   sodipodi:type="inkscape:persp3d"
   inkscape:persp3d-origin="372.04723 : -190.44096 : 1"
   inkscape:vp_z="744.09447 : -15.047258 : 1"
   inkscape:vp_y="0 : 999.99999 : 0"
   inkscape:vp_x="0 : -15.047258 : 1"
   id="perspective9">&#10;		</inkscape:perspective>&#10;</defs>&#10;<sodipodi:namedview
   inkscape:cy="556.67631"
   gridtolerance="10.0"
   pagecolor="#ffffff"
   inkscape:window-x="0"
   inkscape:window-width="1430"
   guidetolerance="10.0"
   inkscape:pageopacity="0.0"
   inkscape:window-y="0"
   showgrid="false"
   bordercolor="#666666"
   inkscape:cx="409.17376"
   inkscape:current-layer="svg2"
   inkscape:pageshadow="2"
   inkscape:zoom="0.5999896"
   borderopacity="1.0"
   objecttolerance="10.0"
   inkscape:window-height="936"
   inkscape:window-maximized="1"
   id="base"
   inkscape:showpageshadow="2"
   inkscape:pagecheckerboard="0"
   inkscape:deskcolor="#d1d1d1"
   inkscape:document-units="cm">&#10;	</sodipodi:namedview>&#10;<path
   id="path2383"
   fill="#0000ca"
   d="m 64.324626,203.33327 c -1.044607,-1.80041 -38.055005,-65.76339 -48.308517,-83.489 -3.022076,-5.22388 -5.494631,-9.65643 -5.494631,-9.84925 0,-0.19282 12.343008,-21.671673 27.428747,-47.730917 L 65.379258,14.883298 h 55.161192 55.16118 l 4.1939,7.234301 c 2.30666,3.979009 12.02699,20.771757 21.60004,37.317536 9.57306,16.545777 17.59383,30.373464 17.82418,30.727875 l 0.41858,0.644638 H 197.70824 175.67871 L 164.65478,71.755507 153.63143,52.703078 H 120.53987 L 87.448317,52.702811 76.561051,71.518872 c -5.987996,10.348918 -10.929096,18.987103 -10.979808,19.19568 -0.0765,0.313439 5.669974,0.379621 32.956039,0.379621 h 33.049158 l 5.36427,9.281107 c 2.95045,5.10441 5.36427,9.43926 5.36427,9.63294 0,0.19396 -2.41296,4.52652 -5.36227,9.62835 l -5.36226,9.27651 H 98.539862 c -27.482324,0 -33.035115,0.0648 -32.958044,0.38392 0.051,0.21115 4.991523,8.84962 10.979233,19.19597 l 10.886693,18.81204 33.092126,-0.002 33.09213,-0.002 11.02308,-19.051 11.02221,-19.051 h 21.9831 21.98311 l -2.77883,4.80988 c -1.52852,2.64475 -11.41472,19.72773 -21.96907,37.96218 l -19.19024,33.15207 H 120.53443 65.363498 Z"
   style="stroke-width:0.286507" />&#10;<g
   id="flowRoot2816">&#10;</g>&#10;&#10;&#10;&#10;&#10;&#10;&#10;&#10;&#10;</svg>
