<?xml version="1.0" encoding="UTF-8" standalone="no"?>
<!-- Created with Inkscape (http://www.inkscape.org/) -->

<svg
   width="30.295923mm"
   height="27.047686mm"
   viewBox="0 0 30.295924 27.047685"
   version="1.1"
   id="svg1"
   inkscape:version="1.3.2 (1:1.3.2+202311252150+091e20ef0f)"
   sodipodi:docname="dll_mh1_25_4y.svg"
   inkscape:export-filename="dll_mh1_25_4y.png"
   inkscape:export-xdpi="429.25906"
   inkscape:export-ydpi="429.25906"
   xmlns:inkscape="http://www.inkscape.org/namespaces/inkscape"
   xmlns:sodipodi="http://sodipodi.sourceforge.net/DTD/sodipodi-0.dtd"
   xmlns="http://www.w3.org/2000/svg"
   xmlns:svg="http://www.w3.org/2000/svg">
  <sodipodi:namedview
     id="namedview1"
     pagecolor="#ffffff"
     bordercolor="#666666"
     borderopacity="1.0"
     inkscape:showpageshadow="2"
     inkscape:pageopacity="0.0"
     inkscape:pagecheckerboard="0"
     inkscape:deskcolor="#d1d1d1"
     inkscape:document-units="mm"
     inkscape:zoom="2.4633751"
     inkscape:cx="121.98711"
     inkscape:cy="112.0414"
     inkscape:window-width="1430"
     inkscape:window-height="936"
     inkscape:window-x="0"
     inkscape:window-y="0"
     inkscape:window-maximized="1"
     inkscape:current-layer="layer1" />
  <defs
     id="defs1" />
  <g
     inkscape:label="Layer 1"
     inkscape:groupmode="layer"
     id="layer1"
     transform="translate(-104.09648,-85.070355)">
    <path
       id="path3871"
       d="m 111.42404,92.07384 v 0 h 3.25967 v 0 z"
       style="fill:#ff0000;fill-opacity:1;fill-rule:evenodd;stroke:none;stroke-width:0.352778" />
    <path
       id="path3877"
       d="m 123.27737,99.143507 v -0.84667"
       style="fill:none;stroke:#000000;stroke-width:0.254;stroke-linecap:round;stroke-linejoin:round;stroke-miterlimit:10;stroke-dasharray:none;stroke-opacity:1" />
    <path
       id="path3878"
       d="m 116.63104,89.279841 h 8.21267 l 1.524,0.931333"
       style="fill:none;stroke:#000000;stroke-width:0.254;stroke-linecap:round;stroke-linejoin:round;stroke-miterlimit:10;stroke-dasharray:none;stroke-opacity:1" />
    <path
       id="path3879"
       d="m 120.94904,99.143507 v 0.29633 m 1.22767,0 v 2.455343 m -1.56634,-2.455343 v 2.455343 m -1.524,-2.455343 v 2.455343"
       style="fill:none;stroke:#000000;stroke-width:0.254;stroke-linecap:round;stroke-linejoin:round;stroke-miterlimit:10;stroke-dasharray:none;stroke-opacity:1" />
    <path
       id="path3880"
       d="m 122.51537,100.03251 h 3.25967 v 1.27 h -3.25967"
       style="fill:none;stroke:#000000;stroke-width:0.254;stroke-linecap:round;stroke-linejoin:round;stroke-miterlimit:10;stroke-dasharray:none;stroke-opacity:1" />
    <path
       id="path3881"
       d="m 117.18137,99.143507 h 6.096 l 1.35467,0.889003"
       style="fill:none;stroke:#000000;stroke-width:0.254;stroke-linecap:round;stroke-linejoin:round;stroke-miterlimit:10;stroke-dasharray:none;stroke-opacity:1" />
    <path
       id="path3882"
       d="m 123.27737,102.19151 1.35467,-0.889 m -3.683,0.889 v -0.29633 m 5.75733,-11.684006 v 16.975666"
       style="fill:none;stroke:#000000;stroke-width:0.254;stroke-linecap:round;stroke-linejoin:round;stroke-miterlimit:10;stroke-dasharray:none;stroke-opacity:1" />
    <path
       id="path3883"
       d="m 115.91137,88.179174 h -1.22766 v 21.039666 h 1.22766 l 0.381,-0.0847 0.254,-0.254 0.0847,-0.33867 v -1.35467 h 10.541 V 90.211174 h -10.541 v -1.312333 l -0.0847,-0.381 -0.254,-0.254 z"
       style="fill:none;stroke:#000000;stroke-width:0.254;stroke-linecap:round;stroke-linejoin:round;stroke-miterlimit:10;stroke-dasharray:none;stroke-opacity:1" />
    <path
       id="path3884"
       d="m 116.63104,108.11818 h 8.21267 l 1.524,-0.93134"
       style="fill:none;stroke:#000000;stroke-width:0.254;stroke-linecap:round;stroke-linejoin:round;stroke-miterlimit:10;stroke-dasharray:none;stroke-opacity:1" />
    <path
       id="path3885"
       d="m 123.27737,107.18684 v -1.10066 m -2.32833,0 v -0.33867 m 1.22767,0 v -2.413 m -1.56634,2.413 v -2.413 m -1.524,2.413 v -2.413"
       style="fill:none;stroke:#000000;stroke-width:0.254;stroke-linecap:round;stroke-linejoin:round;stroke-miterlimit:10;stroke-dasharray:none;stroke-opacity:1" />
    <path
       id="path3886"
       d="m 122.51537,105.19718 h 3.25967 v -1.27 h -3.25967"
       style="fill:none;stroke:#000000;stroke-width:0.254;stroke-linecap:round;stroke-linejoin:round;stroke-miterlimit:10;stroke-dasharray:none;stroke-opacity:1" />
    <path
       id="path3887"
       d="m 117.18137,106.08618 h 6.096 l 1.35467,-0.889"
       style="fill:none;stroke:#000000;stroke-width:0.254;stroke-linecap:round;stroke-linejoin:round;stroke-miterlimit:10;stroke-dasharray:none;stroke-opacity:1" />
    <path
       id="path3888"
       d="m 124.63204,103.92718 -1.35467,-0.889 h -6.096"
       style="fill:none;stroke:#000000;stroke-width:0.254;stroke-linecap:round;stroke-linejoin:round;stroke-miterlimit:10;stroke-dasharray:none;stroke-opacity:1" />
    <path
       id="path3889"
       d="m 123.27737,103.03818 v -0.84667 h -6.096"
       style="fill:none;stroke:#000000;stroke-width:0.254;stroke-linecap:round;stroke-linejoin:round;stroke-miterlimit:10;stroke-dasharray:none;stroke-opacity:1" />
    <path
       id="path3890"
       d="m 120.94904,103.03818 v 0.29633 m 0,-8.08567 v 0.338667 m 1.22767,0 v 2.413 m -1.56634,-2.413 v 2.413 m -1.524,-2.413 v 2.413"
       style="fill:none;stroke:#000000;stroke-width:0.254;stroke-linecap:round;stroke-linejoin:round;stroke-miterlimit:10;stroke-dasharray:none;stroke-opacity:1" />
    <path
       id="path3891"
       d="m 122.51537,96.13784 h 3.25967 v 1.312337 h -3.25967"
       style="fill:none;stroke:#000000;stroke-width:0.254;stroke-linecap:round;stroke-linejoin:round;stroke-miterlimit:10;stroke-dasharray:none;stroke-opacity:1" />
    <path
       id="path3892"
       d="m 117.18137,95.24884 h 6.096 l 1.35467,0.889"
       style="fill:none;stroke:#000000;stroke-width:0.254;stroke-linecap:round;stroke-linejoin:round;stroke-miterlimit:10;stroke-dasharray:none;stroke-opacity:1" />
    <path
       id="path3893"
       d="m 124.63204,97.450177 -1.35467,0.84666 h -6.096"
       style="fill:none;stroke:#000000;stroke-width:0.254;stroke-linecap:round;stroke-linejoin:round;stroke-miterlimit:10;stroke-dasharray:none;stroke-opacity:1" />
    <path
       id="path3894"
       d="m 120.94904,98.296837 v -0.29633 m 2.32833,-2.751667 v -0.804333"
       style="fill:none;stroke:#000000;stroke-width:0.254;stroke-linecap:round;stroke-linejoin:round;stroke-miterlimit:10;stroke-dasharray:none;stroke-opacity:1" />
    <path
       id="path3895"
       d="m 117.18137,107.18684 v -1.43933 h 5.334 v -2.413 h -5.334 v -1.43933 h 5.334 v -2.455343 h -5.334 v -1.43933 h 5.334 v -2.413 h -5.334 v -1.439333"
       style="fill:none;stroke:#000000;stroke-width:0.254;stroke-linecap:round;stroke-linejoin:round;stroke-miterlimit:10;stroke-dasharray:none;stroke-opacity:1" />
    <path
       id="path3896"
       d="m 123.27737,95.24884 v -0.804333 m -2.32833,-3.048 v 0.296333 m 1.22767,0 v 2.413 m -1.56634,-2.413 v 2.413 m -1.524,-2.413 v 2.413"
       style="fill:none;stroke:#000000;stroke-width:0.254;stroke-linecap:round;stroke-linejoin:round;stroke-miterlimit:10;stroke-dasharray:none;stroke-opacity:1" />
    <path
       id="path3897"
       d="m 122.51537,92.285507 h 3.25967 v 1.27 h -3.25967"
       style="fill:none;stroke:#000000;stroke-width:0.254;stroke-linecap:round;stroke-linejoin:round;stroke-miterlimit:10;stroke-dasharray:none;stroke-opacity:1" />
    <path
       id="path3898"
       d="m 117.18137,91.396507 h 6.096 l 1.35467,0.889"
       style="fill:none;stroke:#000000;stroke-width:0.254;stroke-linecap:round;stroke-linejoin:round;stroke-miterlimit:10;stroke-dasharray:none;stroke-opacity:1" />
    <path
       id="path3899"
       d="m 124.63204,93.555507 -1.35467,0.889 h -6.096"
       style="fill:none;stroke:#000000;stroke-width:0.254;stroke-linecap:round;stroke-linejoin:round;stroke-miterlimit:10;stroke-dasharray:none;stroke-opacity:1" />
    <path
       id="path3900"
       d="M 120.94904,94.444507 V 94.10584 m 2.32833,-2.709333 v -1.143"
       style="fill:none;stroke:#000000;stroke-width:0.254;stroke-linecap:round;stroke-linejoin:round;stroke-miterlimit:10;stroke-dasharray:none;stroke-opacity:1" />
    <path
       id="path3901"
       d="m 117.18137,94.10584 h 5.334 v -2.413 h -5.334 v -1.439333"
       style="fill:none;stroke:#000000;stroke-width:0.254;stroke-linecap:round;stroke-linejoin:round;stroke-miterlimit:10;stroke-dasharray:none;stroke-opacity:1" />
    <path
       id="path3935"
       d="m 111.42404,105.23951 v 0 h 3.25967 v 0 z"
       style="fill:#767676;fill-opacity:1;fill-rule:evenodd;stroke:none;stroke-width:0.352778" />
    <path
       id="path3950"
       d="m 111.42404,100.87918 v 0 h 3.25967 v 0 z"
       style="fill:#ffff00;fill-opacity:1;fill-rule:evenodd;stroke:none;stroke-width:0.352778" />
    <path
       id="path3962"
       d="m 111.42404,96.476507 v 0 h 3.25967 v 0 z"
       style="fill:#0000ff;fill-opacity:1;fill-rule:evenodd;stroke:none;stroke-width:0.352778" />
    <path
       id="path4019"
       d="m 129.67375,90.416742 v 2.207617 c 0,0.08062 0.0227,0.139527 0.0703,0.177767 0.0496,0.03927 0.11782,0.05788 0.2067,0.05788 h 0.1447 v 0.08682 h -1.06247 v -0.08682 h 0.13229 c 0.0961,0 0.1664,-0.0186 0.21084,-0.05788 0.0434,-0.03824 0.0662,-0.09715 0.0662,-0.177767 v -1.756998 c 0,-0.03824 -0.0124,-0.07028 -0.0372,-0.09508 -0.0248,-0.02481 -0.062,-0.03721 -0.11162,-0.03721 h -0.26045 v -0.08682 h 0.13229 c 0.11576,0 0.20877,-0.0186 0.28112,-0.05788 0.0744,-0.03824 0.13022,-0.09612 0.1695,-0.173633 z m 0,0"
       style="fill:#000000;fill-opacity:1;fill-rule:nonzero;stroke:none;stroke-width:0.352778"
       aria-label="1" />
    <path
       id="path4022"
       d="m 130.17501,95.896509 c 0,-0.173633 -0.0393,-0.305925 -0.11576,-0.396875 -0.0775,-0.09302 -0.19327,-0.14056 -0.34726,-0.14056 -0.11886,0 -0.21911,0.03204 -0.30179,0.09508 -0.0806,0.06098 -0.11989,0.14056 -0.11989,0.239778 0,0.05788 0.0186,0.106454 0.0579,0.144694 0.0269,0.03927 0.0413,0.07751 0.0413,0.115755 0,0.04961 -0.0124,0.08682 -0.0372,0.111622 -0.0227,0.02274 -0.0579,0.03307 -0.10749,0.03307 -0.0579,0 -0.10542,-0.01654 -0.14056,-0.04961 -0.0331,-0.03307 -0.0496,-0.08888 -0.0496,-0.169499 0,-0.203605 0.0724,-0.3576 0.21911,-0.46302 0.14573,-0.107487 0.30179,-0.161231 0.46716,-0.161231 0.23151,0 0.40204,0.05995 0.51263,0.177767 0.11265,0.115755 0.16949,0.260449 0.16949,0.434082 0,0.115755 -0.0279,0.233578 -0.0827,0.3514 -0.0527,0.115755 -0.13642,0.226343 -0.25218,0.330729 -0.28112,0.272851 -0.49816,0.495056 -0.64905,0.665586 -0.14883,0.16847 -0.23875,0.28112 -0.26872,0.339 h 0.85989 c 0.0879,0 0.16123,-0.0331 0.21911,-0.0992 0.0579,-0.0682 0.0961,-0.17053 0.11576,-0.30592 h 0.0868 l -0.0868,0.62425 h -1.35186 v -0.19017 c 0.0465,-0.0878 0.12506,-0.19947 0.23565,-0.33486 0.11265,-0.13436 0.26148,-0.294556 0.44648,-0.479558 0.16537,-0.165365 0.28629,-0.31936 0.3638,-0.463021 0.0765,-0.145727 0.11576,-0.282153 0.11576,-0.409277 z m 0,0"
       style="fill:#000000;fill-opacity:1;fill-rule:nonzero;stroke:none;stroke-width:0.352778"
       aria-label="2" />
    <path
       id="path4025"
       d="m 130.45199,101.92922 c 0,0.185 -0.0682,0.34727 -0.20257,0.48783 -0.13539,0.14056 -0.32453,0.21084 -0.56637,0.21084 -0.17673,0 -0.32866,-0.0476 -0.45475,-0.1447 -0.12403,-0.0961 -0.18604,-0.20774 -0.18604,-0.33486 0,-0.0579 0.0186,-0.10852 0.0579,-0.15296 0.0382,-0.0434 0.0765,-0.0662 0.11575,-0.0662 0.0579,0 0.0992,0.0227 0.12403,0.0662 0.0248,0.0444 0.0372,0.0806 0.0372,0.10748 0,0.0496 -0.0103,0.0889 -0.0289,0.11576 -0.0196,0.0393 -0.0289,0.0734 -0.0289,0.10335 0,0.0579 0.0351,0.10645 0.10748,0.14469 0.0713,0.0393 0.1509,0.0579 0.23978,0.0579 0.17364,0 0.30386,-0.0506 0.39274,-0.15296 0.0879,-0.10129 0.13229,-0.25838 0.13229,-0.47129 0,-0.17363 -0.0475,-0.31419 -0.14056,-0.42168 -0.0909,-0.10749 -0.26355,-0.16123 -0.51676,-0.16123 v -0.0992 c 0.19534,0 0.339,-0.0455 0.42995,-0.13642 0.093,-0.093 0.14056,-0.22325 0.14056,-0.38861 0,-0.13436 -0.0372,-0.25321 -0.11162,-0.35553 -0.0724,-0.10129 -0.185,-0.15297 -0.339,-0.15297 -0.0693,0 -0.14263,0.0165 -0.21911,0.0496 -0.0775,0.0331 -0.11575,0.0889 -0.11575,0.16537 0,0.0806 0.009,0.13022 0.0289,0.14883 0.0186,0.0196 0.0289,0.0434 0.0289,0.0703 0,0.0496 -0.0103,0.0899 -0.0289,0.11989 -0.0196,0.0279 -0.0538,0.0413 -0.10336,0.0413 -0.0393,0 -0.0765,-0.0134 -0.11162,-0.0413 -0.0331,-0.03 -0.0496,-0.0837 -0.0496,-0.16124 0,-0.14572 0.0631,-0.26458 0.19017,-0.35553 0.12609,-0.093 0.27285,-0.14056 0.43822,-0.14056 0.19223,0 0.34726,0.061 0.46302,0.1819 0.11782,0.12196 0.17776,0.25012 0.17776,0.38447 0,0.14677 -0.0372,0.27079 -0.11162,0.37207 -0.0723,0.10232 -0.18603,0.17777 -0.34313,0.22738 0.21498,0.0775 0.3607,0.17984 0.43822,0.30593 0.0765,0.12402 0.11575,0.25011 0.11575,0.3762 z m 0,0"
       style="fill:#000000;fill-opacity:1;fill-rule:nonzero;stroke:none;stroke-width:0.352778"
       aria-label="3" />
    <path
       id="path4028"
       d="m 130.24736,107.02141 c 0,0.0693 0.0186,0.11886 0.0579,0.14883 0.0382,0.0279 0.092,0.0413 0.16123,0.0413 h 0.12816 v 0.0868 h -0.95912 v -0.0868 h 0.16123 c 0.0765,0 0.1323,-0.0134 0.16537,-0.0413 0.0331,-0.03 0.0496,-0.0796 0.0496,-0.14883 v -0.47955 h -0.97152 v -0.0744 l 1.06247,-1.68672 h 0.14469 v 1.67432 h 0.39274 v 0.0868 h -0.39274 z m -0.24804,-1.87688 -0.83096,1.31051 h 0.84336 v -1.31051 z m 0,0"
       style="fill:#000000;fill-opacity:1;fill-rule:nonzero;stroke:none;stroke-width:0.352778"
       aria-label="4" />
    <rect
       style="fill:#636363;fill-opacity:1;stroke:#000000;stroke-width:0.2;stroke-linecap:round;stroke-linejoin:miter;stroke-dasharray:none;stroke-dashoffset:3.20001;stroke-opacity:1"
       id="rect1"
       width="6.4505486"
       height="1.6634933"
       x="108.21873"
       y="92.11911" />
    <rect
       style="fill:#636363;fill-opacity:1;stroke:#000000;stroke-width:0.2;stroke-linecap:round;stroke-linejoin:miter;stroke-dasharray:none;stroke-dashoffset:3.20001;stroke-opacity:1"
       id="rect1-3"
       width="6.4505486"
       height="1.6634933"
       x="108.21873"
       y="103.89807" />
    <rect
       style="fill:#636363;fill-opacity:1;stroke:#000000;stroke-width:0.2;stroke-linecap:round;stroke-linejoin:miter;stroke-dasharray:none;stroke-dashoffset:3.20001;stroke-opacity:1"
       id="rect1-3-2"
       width="6.4505486"
       height="1.6634933"
       x="108.21873"
       y="99.971748" />
    <rect
       style="fill:#636363;fill-opacity:1;stroke:#000000;stroke-width:0.2;stroke-linecap:round;stroke-linejoin:miter;stroke-dasharray:none;stroke-dashoffset:3.20001;stroke-opacity:1"
       id="rect1-3-2-7"
       width="6.4505486"
       height="1.6634933"
       x="108.21873"
       y="96.045433" />
  </g>
</svg>
