<?xml version="1.0" encoding="UTF-8" standalone="no"?>
<!-- Created with Inkscape (http://www.inkscape.org/) -->

<svg
   width="65.47747mm"
   height="69.532471mm"
   viewBox="0 0 65.477469 69.532474"
   version="1.1"
   id="svg1"
   inkscape:version="1.3.2 (1:1.3.2+202311252150+091e20ef0f)"
   sodipodi:docname="dll_mh1_25_12y.svg"
   inkscape:export-filename="dll_mh1_25_12y.png"
   inkscape:export-xdpi="198.61488"
   inkscape:export-ydpi="198.61488"
   xmlns:inkscape="http://www.inkscape.org/namespaces/inkscape"
   xmlns:sodipodi="http://sodipodi.sourceforge.net/DTD/sodipodi-0.dtd"
   xmlns="http://www.w3.org/2000/svg"
   xmlns:svg="http://www.w3.org/2000/svg">
  <sodipodi:namedview
     id="namedview1"
     pagecolor="#ffffff"
     bordercolor="#666666"
     borderopacity="1.0"
     inkscape:showpageshadow="2"
     inkscape:pageopacity="0.0"
     inkscape:pagecheckerboard="0"
     inkscape:deskcolor="#d1d1d1"
     inkscape:document-units="mm"
     inkscape:zoom="0.45152794"
     inkscape:cx="439.61842"
     inkscape:cy="425.22285"
     inkscape:window-width="1430"
     inkscape:window-height="936"
     inkscape:window-x="0"
     inkscape:window-y="0"
     inkscape:window-maximized="1"
     inkscape:current-layer="layer1" />
  <defs
     id="defs1" />
  <g
     inkscape:label="Layer 1"
     inkscape:groupmode="layer"
     id="layer1"
     transform="translate(-89.141193,-49.251517)">
    <path
       id="path3695"
       d="m 119.21898,101.44125 v -0.93133"
       style="fill:none;stroke:#000000;stroke-width:0.254;stroke-linecap:round;stroke-linejoin:round;stroke-miterlimit:10;stroke-dasharray:none;stroke-opacity:1" />
    <path
       id="path3696"
       d="m 126.75431,55.255585 h -9.27099 l -1.778,1.058334"
       style="fill:none;stroke:#000000;stroke-width:0.254;stroke-linecap:round;stroke-linejoin:round;stroke-miterlimit:10;stroke-dasharray:none;stroke-opacity:1" />
    <path
       id="path3697"
       d="m 121.88598,101.44125 v 0.33867 m -1.43933,0 v 2.75166 m 1.778,-2.75166 v 2.75166 m 1.778,-2.75166 v 2.75166"
       style="fill:none;stroke:#000000;stroke-width:0.254;stroke-linecap:round;stroke-linejoin:round;stroke-miterlimit:10;stroke-dasharray:none;stroke-opacity:1" />
    <path
       id="path3698"
       d="m 120.10798,102.45725 h -3.683 v 1.43933 h 3.683"
       style="fill:none;stroke:#000000;stroke-width:0.254;stroke-linecap:round;stroke-linejoin:round;stroke-miterlimit:10;stroke-dasharray:none;stroke-opacity:1" />
    <path
       id="path3699"
       d="m 126.11931,101.44125 h -6.90033 l -1.48166,1.016"
       style="fill:none;stroke:#000000;stroke-width:0.254;stroke-linecap:round;stroke-linejoin:round;stroke-miterlimit:10;stroke-dasharray:none;stroke-opacity:1" />
    <path
       id="path3700"
       d="m 119.21898,104.91258 -1.48166,-1.016 m 4.14866,1.016 v -0.381 m -6.56166,-48.217661 v 54.229001"
       style="fill:none;stroke:#000000;stroke-width:0.254;stroke-linecap:round;stroke-linejoin:round;stroke-miterlimit:10;stroke-dasharray:none;stroke-opacity:1" />
    <path
       id="path3701"
       d="m 127.55865,54.027919 h 1.43933 v 58.843331 h -1.43933"
       style="fill:none;stroke:#000000;stroke-width:0.254;stroke-linecap:round;stroke-linejoin:round;stroke-miterlimit:10;stroke-dasharray:none;stroke-opacity:1" />
    <path
       id="path3702"
       d="m 126.75431,112.06692 0.0846,0.29633 0.1694,0.254 0.254,0.16933 0.29634,0.0847"
       style="fill:none;stroke:#000000;stroke-width:0.254;stroke-linecap:round;stroke-linejoin:round;stroke-miterlimit:10;stroke-dasharray:none;stroke-opacity:1" />
    <path
       id="path3703"
       d="m 126.75431,112.06692 v -1.524 H 114.81632 V 56.313919 h 11.93799 v -1.481667"
       style="fill:none;stroke:#000000;stroke-width:0.254;stroke-linecap:round;stroke-linejoin:round;stroke-miterlimit:10;stroke-dasharray:none;stroke-opacity:1" />
    <path
       id="path3704"
       d="m 127.55865,54.027919 -0.29634,0.04233 -0.254,0.169334 -0.1694,0.296333 -0.0846,0.296333"
       style="fill:none;stroke:#000000;stroke-width:0.254;stroke-linecap:round;stroke-linejoin:round;stroke-miterlimit:10;stroke-dasharray:none;stroke-opacity:1" />
    <path
       id="path3705"
       d="m 126.75431,111.60125 h -9.27099 l -1.778,-1.05833"
       style="fill:none;stroke:#000000;stroke-width:0.254;stroke-linecap:round;stroke-linejoin:round;stroke-miterlimit:10;stroke-dasharray:none;stroke-opacity:1" />
    <path
       id="path3706"
       d="m 119.21898,110.54292 v -1.27 m 2.667,0 v -0.33867 m -1.43933,0 v -2.75167 m 1.778,2.75167 v -2.75167 m 1.778,2.75167 v -2.75167"
       style="fill:none;stroke:#000000;stroke-width:0.254;stroke-linecap:round;stroke-linejoin:round;stroke-miterlimit:10;stroke-dasharray:none;stroke-opacity:1" />
    <path
       id="path3707"
       d="m 120.10798,108.29925 h -3.683 v -1.48167 h 3.683"
       style="fill:none;stroke:#000000;stroke-width:0.254;stroke-linecap:round;stroke-linejoin:round;stroke-miterlimit:10;stroke-dasharray:none;stroke-opacity:1" />
    <path
       id="path3708"
       d="m 126.11931,109.27292 h -6.90033 l -1.48166,-0.97367"
       style="fill:none;stroke:#000000;stroke-width:0.254;stroke-linecap:round;stroke-linejoin:round;stroke-miterlimit:10;stroke-dasharray:none;stroke-opacity:1" />
    <path
       id="path3709"
       d="m 117.73732,106.81758 1.48166,-0.97366 h 6.90033"
       style="fill:none;stroke:#000000;stroke-width:0.254;stroke-linecap:round;stroke-linejoin:round;stroke-miterlimit:10;stroke-dasharray:none;stroke-opacity:1" />
    <path
       id="path3710"
       d="m 119.21898,105.84392 v -0.93134 h 6.90033"
       style="fill:none;stroke:#000000;stroke-width:0.254;stroke-linecap:round;stroke-linejoin:round;stroke-miterlimit:10;stroke-dasharray:none;stroke-opacity:1" />
    <path
       id="path3711"
       d="m 121.88598,105.84392 v 0.33866 m 0,-9.143997 v 0.381 m -1.43933,0 v 2.709337 m 1.778,-2.709337 v 2.709337 m 1.778,-2.709337 v 2.709337"
       style="fill:none;stroke:#000000;stroke-width:0.254;stroke-linecap:round;stroke-linejoin:round;stroke-miterlimit:10;stroke-dasharray:none;stroke-opacity:1" />
    <path
       id="path3712"
       d="m 120.10798,98.054583 h -3.683 v 1.439334 h 3.683"
       style="fill:none;stroke:#000000;stroke-width:0.254;stroke-linecap:round;stroke-linejoin:round;stroke-miterlimit:10;stroke-dasharray:none;stroke-opacity:1" />
    <path
       id="path3713"
       d="m 126.11931,97.038583 h -6.90033 l -1.48166,1.016"
       style="fill:none;stroke:#000000;stroke-width:0.254;stroke-linecap:round;stroke-linejoin:round;stroke-miterlimit:10;stroke-dasharray:none;stroke-opacity:1" />
    <path
       id="path3714"
       d="m 117.73732,99.493917 1.48166,1.016003 h 6.90033"
       style="fill:none;stroke:#000000;stroke-width:0.254;stroke-linecap:round;stroke-linejoin:round;stroke-miterlimit:10;stroke-dasharray:none;stroke-opacity:1" />
    <path
       id="path3715"
       d="m 121.88598,100.50992 v -0.381 m -2.667,-3.090337 V 96.10725"
       style="fill:none;stroke:#000000;stroke-width:0.254;stroke-linecap:round;stroke-linejoin:round;stroke-miterlimit:10;stroke-dasharray:none;stroke-opacity:1" />
    <path
       id="path3716"
       d="m 126.11931,110.54292 v -1.60867 h -6.01133 v -2.75167 h 6.01133 v -1.651 h -6.01133 v -2.75166 h 6.01133 v -1.651 h -6.01133 v -2.709337 h 6.01133 v -1.651"
       style="fill:none;stroke:#000000;stroke-width:0.254;stroke-linecap:round;stroke-linejoin:round;stroke-miterlimit:10;stroke-dasharray:none;stroke-opacity:1" />
    <path
       id="path3717"
       d="m 119.21898,92.67825 v -0.973666 m 2.667,0.973666 v 0.338667 m -1.43933,0 v 2.751666 m 1.778,-2.751666 v 2.751666 m 1.778,-2.751666 v 2.751666"
       style="fill:none;stroke:#000000;stroke-width:0.254;stroke-linecap:round;stroke-linejoin:round;stroke-miterlimit:10;stroke-dasharray:none;stroke-opacity:1" />
    <path
       id="path3718"
       d="m 120.10798,93.651917 h -3.683 v 1.439333 h 3.683"
       style="fill:none;stroke:#000000;stroke-width:0.254;stroke-linecap:round;stroke-linejoin:round;stroke-miterlimit:10;stroke-dasharray:none;stroke-opacity:1" />
    <path
       id="path3719"
       d="m 126.11931,92.67825 h -6.90033 l -1.48166,0.973667"
       style="fill:none;stroke:#000000;stroke-width:0.254;stroke-linecap:round;stroke-linejoin:round;stroke-miterlimit:10;stroke-dasharray:none;stroke-opacity:1" />
    <path
       id="path3720"
       d="m 119.21898,96.10725 -1.48166,-1.016 m 4.14866,1.016 v -0.338667"
       style="fill:none;stroke:#000000;stroke-width:0.254;stroke-linecap:round;stroke-linejoin:round;stroke-miterlimit:10;stroke-dasharray:none;stroke-opacity:1" />
    <path
       id="path3721"
       d="M 119.21898,97.038583 V 96.10725 h 6.90033"
       style="fill:none;stroke:#000000;stroke-width:0.254;stroke-linecap:round;stroke-linejoin:round;stroke-miterlimit:10;stroke-dasharray:none;stroke-opacity:1" />
    <path
       id="path3722"
       d="m 126.11931,95.768583 h -6.01133 v -2.751666 h 6.01133"
       style="fill:none;stroke:#000000;stroke-width:0.254;stroke-linecap:round;stroke-linejoin:round;stroke-miterlimit:10;stroke-dasharray:none;stroke-opacity:1" />
    <path
       id="path3723"
       d="m 119.21898,88.275584 v -0.931333 m 2.667,0.931333 v 0.338666 m -1.43933,0 v 2.751667 m 1.778,-2.751667 v 2.751667 m 1.778,-2.751667 v 2.751667"
       style="fill:none;stroke:#000000;stroke-width:0.254;stroke-linecap:round;stroke-linejoin:round;stroke-miterlimit:10;stroke-dasharray:none;stroke-opacity:1" />
    <path
       id="path3724"
       d="m 120.10798,89.291584 h -3.683 v 1.439333 h 3.683"
       style="fill:none;stroke:#000000;stroke-width:0.254;stroke-linecap:round;stroke-linejoin:round;stroke-miterlimit:10;stroke-dasharray:none;stroke-opacity:1" />
    <path
       id="path3725"
       d="m 126.11931,88.275584 h -6.90033 l -1.48166,1.016"
       style="fill:none;stroke:#000000;stroke-width:0.254;stroke-linecap:round;stroke-linejoin:round;stroke-miterlimit:10;stroke-dasharray:none;stroke-opacity:1" />
    <path
       id="path3726"
       d="m 119.21898,91.704584 -1.48166,-0.973667 m 4.14866,0.973667 v -0.338667"
       style="fill:none;stroke:#000000;stroke-width:0.254;stroke-linecap:round;stroke-linejoin:round;stroke-miterlimit:10;stroke-dasharray:none;stroke-opacity:1" />
    <path
       id="path3727"
       d="m 119.21898,92.67825 v -0.973666 h 6.90033"
       style="fill:none;stroke:#000000;stroke-width:0.254;stroke-linecap:round;stroke-linejoin:round;stroke-miterlimit:10;stroke-dasharray:none;stroke-opacity:1" />
    <path
       id="path3728"
       d="m 126.11931,91.365917 h -6.01133 V 88.61425 h 6.01133"
       style="fill:none;stroke:#000000;stroke-width:0.254;stroke-linecap:round;stroke-linejoin:round;stroke-miterlimit:10;stroke-dasharray:none;stroke-opacity:1" />
    <path
       id="path3729"
       d="m 126.11931,93.016917 v -1.651 m -6.90033,-3.090333 v -0.931333 m 0,-3.471334 v -0.931333 m 2.667,0.931333 v 0.381 m -1.43933,0 v 2.709334 m 1.778,-2.709334 v 2.709334 m 1.778,-2.709334 v 2.709334"
       style="fill:none;stroke:#000000;stroke-width:0.254;stroke-linecap:round;stroke-linejoin:round;stroke-miterlimit:10;stroke-dasharray:none;stroke-opacity:1" />
    <path
       id="path3730"
       d="m 120.10798,84.888917 h -3.683 v 1.439334 h 3.683"
       style="fill:none;stroke:#000000;stroke-width:0.254;stroke-linecap:round;stroke-linejoin:round;stroke-miterlimit:10;stroke-dasharray:none;stroke-opacity:1" />
    <path
       id="path3731"
       d="m 126.11931,83.872917 h -6.90033 l -1.48166,1.016"
       style="fill:none;stroke:#000000;stroke-width:0.254;stroke-linecap:round;stroke-linejoin:round;stroke-miterlimit:10;stroke-dasharray:none;stroke-opacity:1" />
    <path
       id="path3732"
       d="m 119.21898,87.344251 -1.48166,-1.016 m 4.14866,1.016 v -0.381"
       style="fill:none;stroke:#000000;stroke-width:0.254;stroke-linecap:round;stroke-linejoin:round;stroke-miterlimit:10;stroke-dasharray:none;stroke-opacity:1" />
    <path
       id="path3733"
       d="m 119.21898,88.275584 v -0.931333 h 6.90033"
       style="fill:none;stroke:#000000;stroke-width:0.254;stroke-linecap:round;stroke-linejoin:round;stroke-miterlimit:10;stroke-dasharray:none;stroke-opacity:1" />
    <path
       id="path3734"
       d="m 126.11931,86.963251 h -6.01133 v -2.709334 h 6.01133"
       style="fill:none;stroke:#000000;stroke-width:0.254;stroke-linecap:round;stroke-linejoin:round;stroke-miterlimit:10;stroke-dasharray:none;stroke-opacity:1" />
    <path
       id="path3735"
       d="m 126.11931,88.61425 v -1.608666 m -6.90033,-3.132667 v -0.931333 m 0,-3.471333 v -0.931333 m 2.667,0.931333 v 0.381 m -1.43933,0 v 2.751666 m 1.778,-2.751666 v 2.751666 m 1.778,-2.751666 v 2.751666"
       style="fill:none;stroke:#000000;stroke-width:0.254;stroke-linecap:round;stroke-linejoin:round;stroke-miterlimit:10;stroke-dasharray:none;stroke-opacity:1" />
    <path
       id="path3736"
       d="m 120.10798,80.486251 h -3.683 v 1.439333 h 3.683"
       style="fill:none;stroke:#000000;stroke-width:0.254;stroke-linecap:round;stroke-linejoin:round;stroke-miterlimit:10;stroke-dasharray:none;stroke-opacity:1" />
    <path
       id="path3737"
       d="m 126.11931,79.470251 h -6.90033 l -1.48166,1.016"
       style="fill:none;stroke:#000000;stroke-width:0.254;stroke-linecap:round;stroke-linejoin:round;stroke-miterlimit:10;stroke-dasharray:none;stroke-opacity:1" />
    <path
       id="path3738"
       d="m 119.21898,82.941584 -1.48166,-1.016 m 4.14866,1.016 v -0.338667"
       style="fill:none;stroke:#000000;stroke-width:0.254;stroke-linecap:round;stroke-linejoin:round;stroke-miterlimit:10;stroke-dasharray:none;stroke-opacity:1" />
    <path
       id="path3739"
       d="m 119.21898,83.872917 v -0.931333 h 6.90033"
       style="fill:none;stroke:#000000;stroke-width:0.254;stroke-linecap:round;stroke-linejoin:round;stroke-miterlimit:10;stroke-dasharray:none;stroke-opacity:1" />
    <path
       id="path3740"
       d="m 126.11931,82.602917 h -6.01133 v -2.751666 h 6.01133"
       style="fill:none;stroke:#000000;stroke-width:0.254;stroke-linecap:round;stroke-linejoin:round;stroke-miterlimit:10;stroke-dasharray:none;stroke-opacity:1" />
    <path
       id="path3741"
       d="m 126.11931,84.253917 v -1.651 m -6.90033,-3.132666 v -0.931333 m 0,-3.429 v -0.931333 m 2.667,0.931333 v 0.338666 m -1.43933,0 v 2.751667 m 1.778,-2.751667 v 2.751667 m 1.778,-2.751667 v 2.751667"
       style="fill:none;stroke:#000000;stroke-width:0.254;stroke-linecap:round;stroke-linejoin:round;stroke-miterlimit:10;stroke-dasharray:none;stroke-opacity:1" />
    <path
       id="path3742"
       d="m 120.10798,76.083584 h -3.683 v 1.481667 h 3.683"
       style="fill:none;stroke:#000000;stroke-width:0.254;stroke-linecap:round;stroke-linejoin:round;stroke-miterlimit:10;stroke-dasharray:none;stroke-opacity:1" />
    <path
       id="path3743"
       d="m 126.11931,75.109918 h -6.90033 l -1.48166,0.973666"
       style="fill:none;stroke:#000000;stroke-width:0.254;stroke-linecap:round;stroke-linejoin:round;stroke-miterlimit:10;stroke-dasharray:none;stroke-opacity:1" />
    <path
       id="path3744"
       d="m 119.21898,78.538918 -1.48166,-0.973667 m 4.14866,0.973667 v -0.338667"
       style="fill:none;stroke:#000000;stroke-width:0.254;stroke-linecap:round;stroke-linejoin:round;stroke-miterlimit:10;stroke-dasharray:none;stroke-opacity:1" />
    <path
       id="path3745"
       d="m 119.21898,79.470251 v -0.931333 h 6.90033"
       style="fill:none;stroke:#000000;stroke-width:0.254;stroke-linecap:round;stroke-linejoin:round;stroke-miterlimit:10;stroke-dasharray:none;stroke-opacity:1" />
    <path
       id="path3746"
       d="m 126.11931,78.200251 h -6.01133 v -2.751667 h 6.01133"
       style="fill:none;stroke:#000000;stroke-width:0.254;stroke-linecap:round;stroke-linejoin:round;stroke-miterlimit:10;stroke-dasharray:none;stroke-opacity:1" />
    <path
       id="path3747"
       d="m 119.21898,70.707251 v -0.931333 m 2.667,0.931333 v 0.338667 m -1.43933,0 v 2.751667 m 1.778,-2.751667 v 2.751667 m 1.778,-2.751667 v 2.751667"
       style="fill:none;stroke:#000000;stroke-width:0.254;stroke-linecap:round;stroke-linejoin:round;stroke-miterlimit:10;stroke-dasharray:none;stroke-opacity:1" />
    <path
       id="path3748"
       d="m 120.10798,71.723251 h -3.683 v 1.439334 h 3.683"
       style="fill:none;stroke:#000000;stroke-width:0.254;stroke-linecap:round;stroke-linejoin:round;stroke-miterlimit:10;stroke-dasharray:none;stroke-opacity:1" />
    <path
       id="path3749"
       d="m 126.11931,70.707251 h -6.90033 l -1.48166,1.016"
       style="fill:none;stroke:#000000;stroke-width:0.254;stroke-linecap:round;stroke-linejoin:round;stroke-miterlimit:10;stroke-dasharray:none;stroke-opacity:1" />
    <path
       id="path3750"
       d="m 119.21898,74.178585 -1.48166,-1.016 m 4.14866,1.016 v -0.381"
       style="fill:none;stroke:#000000;stroke-width:0.254;stroke-linecap:round;stroke-linejoin:round;stroke-miterlimit:10;stroke-dasharray:none;stroke-opacity:1" />
    <path
       id="path3751"
       d="m 119.21898,75.109918 v -0.931333 h 6.90033"
       style="fill:none;stroke:#000000;stroke-width:0.254;stroke-linecap:round;stroke-linejoin:round;stroke-miterlimit:10;stroke-dasharray:none;stroke-opacity:1" />
    <path
       id="path3752"
       d="m 126.11931,73.797585 h -6.01133 v -2.751667 h 6.01133"
       style="fill:none;stroke:#000000;stroke-width:0.254;stroke-linecap:round;stroke-linejoin:round;stroke-miterlimit:10;stroke-dasharray:none;stroke-opacity:1" />
    <path
       id="path3753"
       d="m 119.21898,70.707251 v -0.931333 m 0,-3.471333 v -0.931333 m 2.667,0.931333 v 0.381 m -1.43933,0 v 2.709333 m 1.778,-2.709333 v 2.709333 m 1.778,-2.709333 v 2.709333"
       style="fill:none;stroke:#000000;stroke-width:0.254;stroke-linecap:round;stroke-linejoin:round;stroke-miterlimit:10;stroke-dasharray:none;stroke-opacity:1" />
    <path
       id="path3754"
       d="m 120.10798,67.320585 h -3.683 v 1.439333 h 3.683"
       style="fill:none;stroke:#000000;stroke-width:0.254;stroke-linecap:round;stroke-linejoin:round;stroke-miterlimit:10;stroke-dasharray:none;stroke-opacity:1" />
    <path
       id="path3755"
       d="m 126.11931,66.304585 h -6.90033 l -1.48166,1.016"
       style="fill:none;stroke:#000000;stroke-width:0.254;stroke-linecap:round;stroke-linejoin:round;stroke-miterlimit:10;stroke-dasharray:none;stroke-opacity:1" />
    <path
       id="path3756"
       d="m 119.21898,69.775918 -1.48166,-1.016 m 4.14866,1.016 v -0.381"
       style="fill:none;stroke:#000000;stroke-width:0.254;stroke-linecap:round;stroke-linejoin:round;stroke-miterlimit:10;stroke-dasharray:none;stroke-opacity:1" />
    <path
       id="path3757"
       d="m 119.21898,70.707251 v -0.931333 h 6.90033"
       style="fill:none;stroke:#000000;stroke-width:0.254;stroke-linecap:round;stroke-linejoin:round;stroke-miterlimit:10;stroke-dasharray:none;stroke-opacity:1" />
    <path
       id="path3758"
       d="m 126.11931,69.394918 h -6.01133 v -2.709333 h 6.01133"
       style="fill:none;stroke:#000000;stroke-width:0.254;stroke-linecap:round;stroke-linejoin:round;stroke-miterlimit:10;stroke-dasharray:none;stroke-opacity:1" />
    <path
       id="path3759"
       d="m 126.11931,71.045918 v -1.651 m -6.90033,-3.090333 v -0.931333 m 2.667,-3.429 v 0.338666 m -1.43933,0 v 2.751667 m 1.778,-2.751667 v 2.751667 m 1.778,-2.751667 v 2.751667"
       style="fill:none;stroke:#000000;stroke-width:0.254;stroke-linecap:round;stroke-linejoin:round;stroke-miterlimit:10;stroke-dasharray:none;stroke-opacity:1" />
    <path
       id="path3760"
       d="m 120.10798,62.917918 h -3.683 v 1.439334 h 3.683"
       style="fill:none;stroke:#000000;stroke-width:0.254;stroke-linecap:round;stroke-linejoin:round;stroke-miterlimit:10;stroke-dasharray:none;stroke-opacity:1" />
    <path
       id="path3761"
       d="m 126.11931,61.944252 h -6.90033 l -1.48166,0.973666"
       style="fill:none;stroke:#000000;stroke-width:0.254;stroke-linecap:round;stroke-linejoin:round;stroke-miterlimit:10;stroke-dasharray:none;stroke-opacity:1" />
    <path
       id="path3762"
       d="m 119.21898,65.373252 -1.48166,-1.016 m 4.14866,1.016 v -0.338667"
       style="fill:none;stroke:#000000;stroke-width:0.254;stroke-linecap:round;stroke-linejoin:round;stroke-miterlimit:10;stroke-dasharray:none;stroke-opacity:1" />
    <path
       id="path3763"
       d="m 119.21898,66.304585 v -0.931333 h 6.90033"
       style="fill:none;stroke:#000000;stroke-width:0.254;stroke-linecap:round;stroke-linejoin:round;stroke-miterlimit:10;stroke-dasharray:none;stroke-opacity:1" />
    <path
       id="path3764"
       d="m 126.11931,65.034585 h -6.01133 v -2.751667 h 6.01133"
       style="fill:none;stroke:#000000;stroke-width:0.254;stroke-linecap:round;stroke-linejoin:round;stroke-miterlimit:10;stroke-dasharray:none;stroke-opacity:1" />
    <path
       id="path3765"
       d="m 119.21898,61.944252 v -0.973667 m 6.90033,1.312333 v -1.650999 m 0,19.219332 v -1.651 m 0,-2.751667 v -1.650999 m 0,-7.112 v -1.651 m -4.23333,-4.064 v -0.338666 m -1.43933,0 v -2.751667 m 1.778,2.751667 v -2.751667 m 1.778,2.751667 v -2.751667"
       style="fill:none;stroke:#000000;stroke-width:0.254;stroke-linecap:round;stroke-linejoin:round;stroke-miterlimit:10;stroke-dasharray:none;stroke-opacity:1" />
    <path
       id="path3766"
       d="m 120.10798,59.996919 h -3.683 v -1.439334 h 3.683"
       style="fill:none;stroke:#000000;stroke-width:0.254;stroke-linecap:round;stroke-linejoin:round;stroke-miterlimit:10;stroke-dasharray:none;stroke-opacity:1" />
    <path
       id="path3767"
       d="m 126.11931,60.970585 h -6.90033 l -1.48166,-0.973666"
       style="fill:none;stroke:#000000;stroke-width:0.254;stroke-linecap:round;stroke-linejoin:round;stroke-miterlimit:10;stroke-dasharray:none;stroke-opacity:1" />
    <path
       id="path3768"
       d="m 119.21898,57.541585 -1.48166,1.016"
       style="fill:none;stroke:#000000;stroke-width:0.254;stroke-linecap:round;stroke-linejoin:round;stroke-miterlimit:10;stroke-dasharray:none;stroke-opacity:1" />
    <path
       id="path3769"
       d="m 126.11931,57.880252 h -6.01133 v 2.751667 h 6.01133"
       style="fill:none;stroke:#000000;stroke-width:0.254;stroke-linecap:round;stroke-linejoin:round;stroke-miterlimit:10;stroke-dasharray:none;stroke-opacity:1" />
    <path
       id="path3770"
       d="m 119.21898,57.541585 v -1.227666 m 6.90033,1.566333 v -1.566333"
       style="fill:none;stroke:#000000;stroke-width:0.254;stroke-linecap:round;stroke-linejoin:round;stroke-miterlimit:10;stroke-dasharray:none;stroke-opacity:1" />
    <path
       id="path3875"
       d="m 128.99798,58.472919 v -0.04233"
       style="fill:none;stroke:#000000;stroke-width:0.254;stroke-linecap:round;stroke-linejoin:round;stroke-miterlimit:10;stroke-dasharray:none;stroke-opacity:1" />
    <path
       id="path3917"
       d="m 128.99798,67.278252 v -0.04233"
       style="fill:none;stroke:#000000;stroke-width:0.254;stroke-linecap:round;stroke-linejoin:round;stroke-miterlimit:10;stroke-dasharray:none;stroke-opacity:1" />
    <path
       id="path3939"
       d="m 128.99798,71.638585 v -0.04233"
       style="fill:none;stroke:#000000;stroke-width:0.254;stroke-linecap:round;stroke-linejoin:round;stroke-miterlimit:10;stroke-dasharray:none;stroke-opacity:1" />
    <path
       id="path3954"
       d="m 128.99798,95.683917 v -0.04233"
       style="fill:none;stroke:#000000;stroke-width:0.254;stroke-linecap:round;stroke-linejoin:round;stroke-miterlimit:10;stroke-dasharray:none;stroke-opacity:1" />
    <path
       id="path3966"
       d="M 128.99798,91.28125 V 91.23892"
       style="fill:none;stroke:#000000;stroke-width:0.254;stroke-linecap:round;stroke-linejoin:round;stroke-miterlimit:10;stroke-dasharray:none;stroke-opacity:1" />
    <path
       id="path3981"
       d="m 128.99798,108.34158 v -0.0423"
       style="fill:none;stroke:#000000;stroke-width:0.254;stroke-linecap:round;stroke-linejoin:round;stroke-miterlimit:10;stroke-dasharray:none;stroke-opacity:1" />
    <path
       id="path3993"
       d="m 128.99798,103.93892 v -0.0423"
       style="fill:none;stroke:#000000;stroke-width:0.254;stroke-linecap:round;stroke-linejoin:round;stroke-miterlimit:10;stroke-dasharray:none;stroke-opacity:1" />
    <path
       id="path4919"
       d="m 110.78807,55.788032 v 2.364713 c 0,0.08268 0.0248,0.144694 0.0744,0.186036 0.0517,0.04134 0.12506,0.06201 0.21911,0.06201 h 0.15709 v 0.09508 h -1.13688 v -0.09508 h 0.14056 c 0.10439,0 0.1788,-0.02067 0.22324,-0.06201 0.0465,-0.04134 0.0703,-0.103353 0.0703,-0.186036 v -1.881022 c 0,-0.04134 -0.0124,-0.07441 -0.0372,-0.09922 -0.0248,-0.02687 -0.0641,-0.04134 -0.11576,-0.04134 h -0.28112 v -0.09095 h 0.14056 c 0.12402,0 0.22428,-0.02067 0.30179,-0.06201 0.0796,-0.04134 0.14056,-0.104386 0.1819,-0.190169 z m 0,0"
       style="fill:#000000;fill-opacity:1;fill-rule:nonzero;stroke:none;stroke-width:0.352778"
       aria-label="1" />
    <path
       id="path4920"
       d="m 113.08871,56.490831 c 0,-0.187068 -0.0413,-0.328662 -0.12403,-0.425813 -0.0827,-0.09922 -0.20877,-0.148828 -0.3762,-0.148828 -0.12402,0 -0.23048,0.03307 -0.31833,0.09922 -0.0889,0.06615 -0.13229,0.151929 -0.13229,0.256315 0,0.06408 0.0207,0.115756 0.062,0.157097 0.0331,0.04134 0.0496,0.08268 0.0496,0.124023 0,0.05271 -0.0145,0.09095 -0.0413,0.115755 -0.0248,0.02481 -0.0641,0.03721 -0.11575,0.03721 -0.061,0 -0.11059,-0.01757 -0.14883,-0.05374 -0.0362,-0.03514 -0.0538,-0.09508 -0.0538,-0.177767 0,-0.217041 0.0765,-0.382406 0.23151,-0.496094 0.1571,-0.115755 0.3235,-0.173633 0.50023,-0.173633 0.24805,0 0.43098,0.06201 0.54984,0.186036 0.12092,0.124023 0.1819,0.280086 0.1819,0.467155 0,0.124023 -0.0289,0.250113 -0.0868,0.376204 -0.0579,0.124023 -0.14882,0.242879 -0.27285,0.355534 -0.30075,0.289388 -0.53123,0.525032 -0.69039,0.706933 -0.1602,0.181901 -0.25632,0.304891 -0.28939,0.367937 h 0.91777 c 0.093,0 0.17053,-0.03514 0.23151,-0.107487 0.063,-0.07442 0.10542,-0.183969 0.12816,-0.33073 h 0.091 l -0.091,0.669727 h -1.44694 v -0.202572 c 0.0517,-0.09302 0.13746,-0.211873 0.25631,-0.355534 0.11783,-0.145727 0.27699,-0.318326 0.47543,-0.516764 0.1757,-0.1757 0.30592,-0.341064 0.3886,-0.496094 0.0827,-0.153995 0.12403,-0.298689 0.12403,-0.434082 z m 0,0"
       style="fill:#000000;fill-opacity:1;fill-rule:nonzero;stroke:none;stroke-width:0.352778"
       aria-label="2" />
    <path
       id="path4921"
       d="m 110.95757,60.486452 v 2.364714 c 0,0.08268 0.0248,0.144694 0.0744,0.186035 0.0517,0.04134 0.12506,0.06201 0.21911,0.06201 h 0.1571 v 0.09508 h -1.13688 v -0.09508 h 0.14056 c 0.10438,0 0.1788,-0.02067 0.22324,-0.06201 0.0465,-0.04134 0.0703,-0.103353 0.0703,-0.186035 v -1.881022 c 0,-0.04134 -0.0124,-0.07441 -0.0372,-0.09922 -0.0248,-0.02687 -0.0641,-0.04134 -0.11575,-0.04134 h -0.28112 v -0.09095 h 0.14056 c 0.12402,0 0.22427,-0.02067 0.30179,-0.06201 0.0796,-0.04134 0.14056,-0.104386 0.1819,-0.190169 z m 0,0"
       style="fill:#000000;fill-opacity:1;fill-rule:nonzero;stroke:none;stroke-width:0.352778"
       aria-label="1" />
    <path
       id="path4922"
       d="m 112.94711,60.486452 v 2.364714 c 0,0.08268 0.0248,0.144694 0.0744,0.186035 0.0517,0.04134 0.12506,0.06201 0.21911,0.06201 h 0.1571 v 0.09508 h -1.13689 v -0.09508 h 0.14056 c 0.10439,0 0.1788,-0.02067 0.22325,-0.06201 0.0465,-0.04134 0.0703,-0.103353 0.0703,-0.186035 v -1.881022 c 0,-0.04134 -0.0124,-0.07441 -0.0372,-0.09922 -0.0248,-0.02687 -0.0641,-0.04134 -0.11576,-0.04134 h -0.28112 v -0.09095 h 0.14056 c 0.12403,0 0.22428,-0.02067 0.30179,-0.06201 0.0796,-0.04134 0.14056,-0.104386 0.18191,-0.190169 z m 0,0"
       style="fill:#000000;fill-opacity:1;fill-rule:nonzero;stroke:none;stroke-width:0.352778"
       aria-label="1" />
    <path
       id="path4923"
       d="m 110.74569,65.185907 v 2.364714 c 0,0.08268 0.0248,0.144694 0.0744,0.186035 0.0517,0.04134 0.12505,0.06201 0.2191,0.06201 h 0.1571 v 0.09508 h -1.13688 v -0.09508 h 0.14056 c 0.10438,0 0.1788,-0.02067 0.22324,-0.06201 0.0465,-0.04134 0.0703,-0.103353 0.0703,-0.186035 v -1.881022 c 0,-0.04134 -0.0124,-0.07441 -0.0372,-0.09922 -0.0248,-0.02687 -0.0641,-0.04134 -0.11575,-0.04134 h -0.28112 v -0.09095 H 110.2 c 0.12402,0 0.22427,-0.02067 0.30179,-0.06201 0.0796,-0.04134 0.14056,-0.104387 0.1819,-0.19017 z m 0,0"
       style="fill:#000000;fill-opacity:1;fill-rule:nonzero;stroke:none;stroke-width:0.352778"
       aria-label="1" />
    <path
       id="path4924"
       d="m 112.59572,65.326467 c -0.14677,0 -0.26872,0.111621 -0.36794,0.334864 -0.0971,0.223242 -0.14469,0.520898 -0.14469,0.892968 0,0.394808 0.0475,0.700733 0.14469,0.917774 0.0992,0.218074 0.22117,0.326595 0.36794,0.326595 0.15399,0 0.27491,-0.108521 0.3638,-0.326595 0.0879,-0.217041 0.13229,-0.522966 0.13229,-0.917774 0,-0.37207 -0.0413,-0.669726 -0.12402,-0.892968 -0.0827,-0.223243 -0.20671,-0.334864 -0.37207,-0.334864 z m 0,2.596224 c -0.22945,0 -0.42168,-0.117822 -0.57878,-0.355534 -0.15503,-0.239778 -0.23151,-0.576709 -0.23151,-1.012858 0,-0.402042 0.0744,-0.727604 0.22324,-0.975651 0.1509,-0.250114 0.34727,-0.376204 0.58705,-0.376204 0.22841,0 0.41754,0.119889 0.56637,0.359668 0.15089,0.237711 0.22738,0.568441 0.22738,0.992187 0,0.427881 -0.0765,0.762744 -0.22738,1.00459 -0.14883,0.242879 -0.33796,0.363802 -0.56637,0.363802 z m 0,0"
       style="fill:#000000;fill-opacity:1;fill-rule:nonzero;stroke:none;stroke-width:0.352778"
       aria-label="0" />
    <path
       id="path4925"
       d="m 112.07585,70.714251 c 0,0.229444 0.0434,0.403076 0.13229,0.520899 0.0879,0.118856 0.19947,0.177767 0.33486,0.177767 0.1571,0 0.29146,-0.07131 0.40515,-0.214974 0.11265,-0.145728 0.1695,-0.28112 0.1695,-0.405144 0,-0.248046 -0.0413,-0.446484 -0.12403,-0.595312 -0.0827,-0.150895 -0.21807,-0.227376 -0.40514,-0.227376 -0.17363,0 -0.30386,0.07028 -0.38861,0.21084 -0.0827,0.138492 -0.12402,0.316259 -0.12402,0.5333 z m 0.42168,0.839226 c -0.20671,0 -0.37414,-0.06408 -0.50023,-0.194304 -0.12402,-0.129191 -0.18603,-0.338997 -0.18603,-0.628385 0,-0.248047 0.0672,-0.454753 0.20257,-0.620117 0.13436,-0.167432 0.32659,-0.252181 0.57464,-0.252181 0.26148,0 0.46405,0.10542 0.60771,0.314192 0.14573,0.206706 0.21911,0.507463 0.21911,0.901237 0,0.436149 -0.0858,0.795817 -0.25631,1.079004 -0.17157,0.284221 -0.40721,0.425814 -0.70694,0.425814 -0.13539,0 -0.25218,-0.02997 -0.3514,-0.09095 -0.0992,-0.06305 -0.14882,-0.145727 -0.14882,-0.248046 0,-0.04134 0.0124,-0.08268 0.0372,-0.124024 0.0269,-0.04134 0.0724,-0.06201 0.13643,-0.06201 0.0599,0 0.10025,0.02377 0.11989,0.07028 0.0217,0.04444 0.0331,0.09819 0.0331,0.161231 0,0.04134 0.005,0.07648 0.0165,0.103353 0.0103,0.0248 0.0217,0.04341 0.0331,0.05374 0.008,0.0083 0.0248,0.0155 0.0496,0.02067 0.0269,0.0062 0.0558,0.0083 0.0868,0.0083 0.18706,0 0.33693,-0.103353 0.45061,-0.310059 0.11576,-0.206705 0.18294,-0.553971 0.20258,-1.041796 -0.0496,0.124023 -0.12713,0.227376 -0.23151,0.310058 -0.10542,0.08268 -0.23462,0.124024 -0.38861,0.124024 z m 0,0"
       style="fill:#000000;fill-opacity:1;fill-rule:nonzero;stroke:none;stroke-width:0.352778"
       aria-label="9" />
    <path
       id="path4926"
       d="m 112.03037,76.612601 c 0,0.165365 0.0537,0.300757 0.16123,0.405144 0.10956,0.102319 0.24805,0.152962 0.41342,0.152962 0.19843,0 0.34106,-0.05064 0.42994,-0.152962 0.0879,-0.104387 0.1323,-0.235645 0.1323,-0.392741 0,-0.132292 -0.0641,-0.260449 -0.19017,-0.384473 -0.12403,-0.12609 -0.31006,-0.240812 -0.55811,-0.343131 -0.12402,0.08268 -0.22117,0.186035 -0.28939,0.310058 -0.0661,0.124024 -0.0992,0.259416 -0.0992,0.405143 z m 1.3684,-0.03307 c 0,0.198438 -0.0734,0.36587 -0.21911,0.500228 -0.14366,0.132292 -0.33487,0.198438 -0.57464,0.198438 -0.21808,0 -0.40515,-0.06615 -0.56224,-0.198438 -0.15503,-0.134358 -0.23151,-0.290421 -0.23151,-0.467155 0,-0.175699 0.0434,-0.326595 0.13229,-0.450618 0.0878,-0.126091 0.21601,-0.235645 0.38447,-0.326595 -0.14676,-0.07441 -0.25942,-0.165365 -0.339,-0.272852 -0.0775,-0.109554 -0.11575,-0.232544 -0.11575,-0.367936 0,-0.1757 0.0672,-0.326595 0.20257,-0.450618 0.13436,-0.124024 0.32246,-0.186035 0.56224,-0.186035 0.21704,0 0.39377,0.06201 0.52917,0.186035 0.13435,0.124023 0.20257,0.274918 0.20257,0.450618 0,0.127124 -0.0403,0.24598 -0.11989,0.355534 -0.0775,0.107487 -0.19844,0.202572 -0.3638,0.285254 0.1757,0.102319 0.30592,0.217041 0.3886,0.343131 0.0827,0.124024 0.12403,0.258383 0.12403,0.401009 z m -0.24805,-1.368391 c 0,-0.142627 -0.0413,-0.268718 -0.12402,-0.376205 -0.0827,-0.109554 -0.21291,-0.165364 -0.38861,-0.165364 -0.19844,0 -0.339,0.05271 -0.42168,0.157096 -0.0827,0.102319 -0.12402,0.209806 -0.12402,0.322461 0,0.113688 0.0589,0.225309 0.17776,0.334863 0.12093,0.107487 0.29042,0.204639 0.5085,0.289388 0.12402,-0.06305 0.21601,-0.141593 0.27698,-0.235644 0.0631,-0.09302 0.0951,-0.202572 0.0951,-0.326595 z m 0,0"
       style="fill:#000000;fill-opacity:1;fill-rule:nonzero;stroke:none;stroke-width:0.352778"
       aria-label="8" />
    <path
       id="path4927"
       d="m 113.39877,79.39796 c -0.21808,0.353466 -0.39171,0.697631 -0.5209,1.033528 -0.13023,0.336931 -0.19431,0.630453 -0.19431,0.880567 0,0.04134 0.005,0.09819 0.0165,0.169498 0,0.08268 0,0.176734 0,0.28112 0,0.08268 -0.0145,0.139526 -0.0413,0.169499 -0.0248,0.03101 -0.0692,0.04548 -0.13229,0.04548 -0.0496,0 -0.0941,-0.01757 -0.13229,-0.05374 -0.0362,-0.03514 -0.0538,-0.100253 -0.0538,-0.194304 0,-0.195337 0.0434,-0.438216 0.13229,-0.727604 0.0879,-0.291455 0.3235,-0.785482 0.70694,-1.480013 h -0.77722 c -0.11368,0 -0.20463,0.03721 -0.27285,0.111621 -0.0661,0.07235 -0.11472,0.179834 -0.14469,0.322461 l -0.0951,-0.0124 0.11163,-0.65319 h 1.39733 z m 0,0"
       style="fill:#000000;fill-opacity:1;fill-rule:nonzero;stroke:none;stroke-width:0.352778"
       aria-label="7" />
    <path
       id="path4928"
       d="m 112.08309,85.546422 c 0,0.312125 0.0537,0.552937 0.16123,0.72347 0.10955,0.171565 0.24184,0.256315 0.39687,0.256315 0.154,0 0.27285,-0.05581 0.35553,-0.169499 0.0847,-0.115755 0.12816,-0.327628 0.12816,-0.636653 0,-0.208773 -0.0444,-0.370004 -0.13229,-0.483692 -0.0889,-0.112654 -0.1943,-0.169499 -0.31833,-0.169499 -0.11575,0 -0.22324,0.03307 -0.32246,0.09922 -0.0971,0.06615 -0.18603,0.19327 -0.26871,0.380339 z m 0.60358,-0.636654 c 0.25011,0 0.42994,0.08268 0.53743,0.248047 0.10956,0.165365 0.16537,0.353467 0.16537,0.56224 0,0.309025 -0.0765,0.539501 -0.22738,0.690397 -0.14883,0.148828 -0.32246,0.223242 -0.5209,0.223242 -0.28112,0 -0.49506,-0.10542 -0.64079,-0.318327 -0.14366,-0.211873 -0.21497,-0.518831 -0.21497,-0.921908 0,-0.479557 0.0878,-0.845426 0.26458,-1.099674 0.1757,-0.253214 0.41445,-0.380338 0.7152,-0.380338 0.14573,0 0.26252,0.04134 0.3514,0.124023 0.0879,0.08268 0.1323,0.156063 0.1323,0.219108 0,0.06408 -0.0145,0.110588 -0.0413,0.14056 -0.0248,0.03101 -0.0692,0.04547 -0.13229,0.04547 -0.0496,0 -0.0889,-0.0124 -0.11575,-0.03721 -0.0248,-0.02687 -0.0372,-0.06718 -0.0372,-0.119889 0,-0.0186 0.005,-0.03927 0.0165,-0.06201 0,-0.0186 0,-0.03927 0,-0.06201 0,-0.04134 -0.0165,-0.07441 -0.0496,-0.09922 -0.031,-0.02481 -0.0868,-0.03721 -0.1695,-0.03721 -0.17673,0 -0.3266,0.08061 -0.45062,0.239778 -0.12402,0.160197 -0.18603,0.510563 -0.18603,1.050065 0.0599,-0.134358 0.14469,-0.235644 0.25218,-0.30179 0.10955,-0.06821 0.22737,-0.103353 0.3514,-0.103353 z m 0,0"
       style="fill:#000000;fill-opacity:1;fill-rule:nonzero;stroke:none;stroke-width:0.352778"
       aria-label="6" />
    <path
       id="path4929"
       d="m 112.71664,89.592687 c 0.19533,0 0.35553,0.07648 0.47955,0.227376 0.12403,0.148828 0.18604,0.349333 0.18604,0.599446 0,0.279053 -0.0651,0.500228 -0.1943,0.665593 -0.13023,0.165364 -0.3297,0.248047 -0.59945,0.248047 -0.185,0 -0.35037,-0.05374 -0.49609,-0.161231 -0.14677,-0.109554 -0.21911,-0.241845 -0.21911,-0.396875 0,-0.06305 0.0176,-0.116788 0.0537,-0.16123 0.0382,-0.04651 0.0879,-0.07028 0.14883,-0.07028 0.063,0 0.10439,0.02067 0.12402,0.06201 0.0217,0.04134 0.0331,0.07751 0.0331,0.107487 0,0.06408 -0.0155,0.110587 -0.0455,0.140559 -0.0331,0.04134 -0.0496,0.08268 -0.0496,0.124024 0,0.08268 0.0496,0.144694 0.14883,0.186035 0.0992,0.04134 0.20464,0.06201 0.31833,0.06201 0.16536,0 0.29145,-0.06718 0.38033,-0.202572 0.0879,-0.134359 0.1323,-0.326595 0.1323,-0.574642 0,-0.206705 -0.0393,-0.374137 -0.11576,-0.504362 -0.0775,-0.129191 -0.19327,-0.194303 -0.34726,-0.194303 -0.11576,0 -0.21498,0.02067 -0.29766,0.06201 -0.0827,0.04134 -0.1602,0.130224 -0.23151,0.264583 l -0.14056,-0.01654 0.0786,-1.413867 h 1.2733 l -0.0455,0.231511 h -1.12035 l -0.062,1.02526 c 0.10129,-0.142627 0.20257,-0.229443 0.30179,-0.260449 0.0992,-0.03307 0.20051,-0.04961 0.30593,-0.04961 z m 0,0"
       style="fill:#000000;fill-opacity:1;fill-rule:nonzero;stroke:none;stroke-width:0.352778"
       aria-label="5" />
    <path
       id="path4930"
       d="m 112.98741,95.704974 c 0,0.07441 0.0207,0.127124 0.062,0.157096 0.0413,0.03101 0.0992,0.04548 0.17363,0.04548 h 0.13642 v 0.09508 h -1.02526 v -0.09508 h 0.1695 c 0.0847,0 0.14573,-0.01447 0.1819,-0.04548 0.0351,-0.02997 0.0537,-0.08268 0.0537,-0.157096 v -0.51263 h -1.0418 v -0.07441 l 1.13275,-1.806608 h 0.15709 v 1.790071 h 0.42168 v 0.09095 h -0.42168 z m -0.26458,-2.005046 -0.8847,1.401465 h 0.90124 v -1.401465 z m 0,0"
       style="fill:#000000;fill-opacity:1;fill-rule:nonzero;stroke:none;stroke-width:0.352778"
       aria-label="4" />
    <path
       id="path4931"
       d="m 113.38223,99.944515 c 0,0.196365 -0.0734,0.370005 -0.21911,0.520895 -0.14366,0.14883 -0.3452,0.22325 -0.60358,0.22325 -0.1881,0 -0.34933,-0.0507 -0.48369,-0.15297 -0.13539,-0.10438 -0.20257,-0.22427 -0.20257,-0.35967 0,-0.0599 0.0207,-0.11368 0.062,-0.16123 0.0434,-0.0465 0.0868,-0.07028 0.12816,-0.07028 0.0599,0 0.10335,0.02377 0.12815,0.07028 0.0269,0.0476 0.0414,0.0858 0.0414,0.11576 0,0.0527 -0.0114,0.094 -0.0331,0.12402 -0.0196,0.0413 -0.0289,0.0775 -0.0289,0.10749 0,0.0641 0.0382,0.11576 0.11576,0.1571 0.0765,0.0413 0.16226,0.062 0.25631,0.062 0.18707,0 0.32763,-0.0537 0.42168,-0.16123 0.093,-0.10956 0.14056,-0.27906 0.14056,-0.508498 0,-0.183968 -0.0496,-0.332797 -0.14882,-0.446485 -0.0992,-0.115755 -0.28422,-0.173633 -0.55398,-0.173633 v -0.107487 c 0.20878,0 0.36174,-0.04961 0.45889,-0.148828 0.0992,-0.09922 0.14883,-0.236678 0.14883,-0.413411 0,-0.142627 -0.0393,-0.268717 -0.11576,-0.376204 -0.0775,-0.109555 -0.2005,-0.165365 -0.36793,-0.165365 -0.0724,0 -0.14883,0.0186 -0.23151,0.05374 -0.0827,0.03617 -0.12403,0.09509 -0.12403,0.177767 0,0.08268 0.009,0.135393 0.0289,0.157097 0.0217,0.01964 0.0331,0.04444 0.0331,0.07441 0,0.05271 -0.0114,0.09508 -0.0331,0.128157 -0.0196,0.03101 -0.0558,0.04548 -0.10748,0.04548 -0.0413,0 -0.0806,-0.01447 -0.11576,-0.04548 -0.0362,-0.03307 -0.0537,-0.09095 -0.0537,-0.173633 0,-0.153995 0.0672,-0.281119 0.20257,-0.380338 0.13436,-0.09922 0.28939,-0.148828 0.46302,-0.148828 0.20877,0 0.3762,0.06511 0.50023,0.194303 0.12402,0.130225 0.18603,0.267684 0.18603,0.413412 0,0.155029 -0.0393,0.287321 -0.11575,0.396875 -0.0775,0.107487 -0.20051,0.188102 -0.36794,0.239778 0.22841,0.08268 0.38447,0.192237 0.46716,0.326595 0.0827,0.135393 0.12402,0.270785 0.12402,0.405144 z m 0,0"
       style="fill:#000000;fill-opacity:1;fill-rule:nonzero;stroke:none;stroke-width:0.352778"
       aria-label="3" />
    <path
       id="path4932"
       d="m 113.08871,103.35308 c 0,-0.18707 -0.0413,-0.32866 -0.12403,-0.42581 -0.0827,-0.0992 -0.20877,-0.14883 -0.3762,-0.14883 -0.12402,0 -0.23048,0.0331 -0.31833,0.0992 -0.0889,0.0661 -0.13229,0.15193 -0.13229,0.25631 0,0.0641 0.0207,0.11576 0.062,0.1571 0.0331,0.0413 0.0496,0.0827 0.0496,0.12402 0,0.0527 -0.0145,0.0909 -0.0413,0.11576 -0.0248,0.0248 -0.0641,0.0372 -0.11575,0.0372 -0.061,0 -0.11059,-0.0176 -0.14883,-0.0538 -0.0362,-0.0351 -0.0538,-0.0951 -0.0538,-0.17776 0,-0.21704 0.0765,-0.38241 0.23151,-0.4961 0.1571,-0.11575 0.3235,-0.17363 0.50023,-0.17363 0.24805,0 0.43098,0.062 0.54984,0.18603 0.12092,0.12403 0.1819,0.28009 0.1819,0.46716 0,0.12402 -0.0289,0.25011 -0.0868,0.3762 -0.0579,0.12403 -0.14882,0.24288 -0.27285,0.35554 -0.30075,0.28939 -0.53123,0.52503 -0.69039,0.70693 -0.1602,0.1819 -0.25632,0.30489 -0.28939,0.36794 h 0.91777 c 0.093,0 0.17053,-0.0351 0.23151,-0.10749 0.063,-0.0744 0.10542,-0.18397 0.12816,-0.33073 h 0.091 l -0.091,0.66973 h -1.44694 v -0.20257 c 0.0517,-0.093 0.13746,-0.21188 0.25631,-0.35554 0.11783,-0.14572 0.27699,-0.31832 0.47543,-0.51676 0.1757,-0.1757 0.30592,-0.34107 0.3886,-0.4961 0.0827,-0.15399 0.12403,-0.29869 0.12403,-0.43408 z m 0,0"
       style="fill:#000000;fill-opacity:1;fill-rule:nonzero;stroke:none;stroke-width:0.352778"
       aria-label="2" />
    <path
       id="path4933"
       d="m 112.94711,107.34974 v 2.36472 c 0,0.0827 0.0248,0.14469 0.0744,0.18603 0.0517,0.0413 0.12506,0.062 0.21911,0.062 h 0.1571 v 0.0951 h -1.13689 v -0.0951 h 0.14056 c 0.10439,0 0.1788,-0.0207 0.22325,-0.062 0.0465,-0.0413 0.0703,-0.10335 0.0703,-0.18603 v -1.88103 c 0,-0.0413 -0.0124,-0.0744 -0.0372,-0.0992 -0.0248,-0.0269 -0.0641,-0.0413 -0.11576,-0.0413 h -0.28112 v -0.0909 h 0.14056 c 0.12403,0 0.22428,-0.0207 0.30179,-0.062 0.0796,-0.0413 0.14056,-0.10439 0.18191,-0.19017 z m 0,0"
       style="fill:#000000;fill-opacity:1;fill-rule:nonzero;stroke:none;stroke-width:0.352778"
       aria-label="1" />
  </g>
</svg>
