<?xml version="1.0" encoding="UTF-8" standalone="no"?>
<!-- Created with Inkscape (http://www.inkscape.org/) -->

<svg
   width="42.977764mm"
   height="26.305471mm"
   viewBox="0 0 42.977765 26.305471"
   version="1.1"
   id="svg1"
   inkscape:version="1.3.2 (1:1.3.2+202311252150+091e20ef0f)"
   sodipodi:docname="dll_mh1_25_4r.svg"
   xmlns:inkscape="http://www.inkscape.org/namespaces/inkscape"
   xmlns:sodipodi="http://sodipodi.sourceforge.net/DTD/sodipodi-0.dtd"
   xmlns="http://www.w3.org/2000/svg"
   xmlns:svg="http://www.w3.org/2000/svg">
  <sodipodi:namedview
     id="namedview1"
     pagecolor="#ffffff"
     bordercolor="#666666"
     borderopacity="1.0"
     inkscape:showpageshadow="2"
     inkscape:pageopacity="0.0"
     inkscape:pagecheckerboard="0"
     inkscape:deskcolor="#d1d1d1"
     inkscape:document-units="mm"
     inkscape:zoom="2.4129928"
     inkscape:cx="57.397602"
     inkscape:cy="77.497123"
     inkscape:window-width="1430"
     inkscape:window-height="936"
     inkscape:window-x="0"
     inkscape:window-y="0"
     inkscape:window-maximized="1"
     inkscape:current-layer="layer1">
    <inkscape:page
       x="0"
       y="0"
       width="42.977768"
       height="26.30547"
       id="page1"
       margin="0"
       bleed="0"
       inkscape:export-filename="dll_mh1_25_4r.png"
       inkscape:export-xdpi="302.59366"
       inkscape:export-ydpi="302.59366" />
  </sodipodi:namedview>
  <defs
     id="defs1" />
  <g
     inkscape:label="Layer 1"
     inkscape:groupmode="layer"
     id="layer1"
     transform="translate(-79.901502,-39.807815)">
    <path
       id="path3808"
       d="m 89.196337,56.718755 v -0.04233 m 2.455333,0.04233 v -0.04233 m 21.209,2.074333 v -0.04233"
       style="fill:none;stroke:#000000;stroke-width:0.0423333;stroke-linecap:round;stroke-linejoin:round;stroke-miterlimit:10;stroke-dasharray:none;stroke-opacity:1" />
    <path
       id="path3809"
       d="m 103.46267,53.967089 v 1.566333 h -1.05833 l -1.48167,0.846667 h -6.731"
       style="fill:none;stroke:#000000;stroke-width:0.0423333;stroke-linecap:round;stroke-linejoin:round;stroke-miterlimit:10;stroke-dasharray:none;stroke-opacity:1" />
    <path
       id="path3810"
       d="M 99.822003,56.210755 V 53.374422"
       style="fill:none;stroke:#000000;stroke-width:0.0423333;stroke-linecap:round;stroke-linejoin:round;stroke-miterlimit:10;stroke-dasharray:none;stroke-opacity:1" />
    <path
       id="path3811"
       d="m 103.46267,53.967089 h -1.05833 l -1.48167,-0.846667 h -6.731"
       style="fill:none;stroke:#000000;stroke-width:0.0423333;stroke-linecap:round;stroke-linejoin:round;stroke-miterlimit:10;stroke-dasharray:none;stroke-opacity:1" />
    <path
       id="path3812"
       d="m 99.822003,53.374422 v -0.04233 m 1.100667,-0.211667 v -0.592667 m -1.100667,0.846667 -5.630333,-0.254 m 5.630333,3.090333 -5.630333,0.169334 m 0,-0.169334 h 0.127"
       style="fill:none;stroke:#000000;stroke-width:0.0423333;stroke-linecap:round;stroke-linejoin:round;stroke-miterlimit:10;stroke-dasharray:none;stroke-opacity:1" />
    <path
       id="path3813"
       d="m 94.19167,52.316089 v 1.058333 h 0.127 v 2.836333"
       style="fill:none;stroke:#000000;stroke-width:0.0423333;stroke-linecap:round;stroke-linejoin:round;stroke-miterlimit:10;stroke-dasharray:none;stroke-opacity:1" />
    <path
       id="path3814"
       d="m 89.196337,56.718755 v -0.04233 m 2.455333,0.04233 v -0.04233 m 21.209,2.074333 v -0.04233 m 4.99533,4.656666 h -10.668"
       style="fill:none;stroke:#000000;stroke-width:0.0423333;stroke-linecap:round;stroke-linejoin:round;stroke-miterlimit:10;stroke-dasharray:none;stroke-opacity:1" />
    <path
       id="path3815"
       d="m 106.553,62.687755 0.0847,0.338667 0.254,0.254 0.29633,0.08467"
       style="fill:none;stroke:#000000;stroke-width:0.0423333;stroke-linecap:round;stroke-linejoin:round;stroke-miterlimit:10;stroke-dasharray:none;stroke-opacity:1" />
    <path
       id="path3816"
       d="M 106.553,62.687755 V 42.918089 m 11.303,-0.677333 v 21.124332 m -11.303,-2.032 H 89.196337"
       style="fill:none;stroke:#000000;stroke-width:0.0423333;stroke-linecap:round;stroke-linejoin:round;stroke-miterlimit:10;stroke-dasharray:none;stroke-opacity:1" />
    <path
       id="path3817"
       d="m 103.46267,57.904089 h -1.05833 l -1.48167,-0.889 v -0.635"
       style="fill:none;stroke:#000000;stroke-width:0.0423333;stroke-linecap:round;stroke-linejoin:round;stroke-miterlimit:10;stroke-dasharray:none;stroke-opacity:1" />
    <path
       id="path3818"
       d="m 94.19167,57.015089 h 6.731 m -1.100667,0.254 v -0.04233"
       style="fill:none;stroke:#000000;stroke-width:0.0423333;stroke-linecap:round;stroke-linejoin:round;stroke-miterlimit:10;stroke-dasharray:none;stroke-opacity:1" />
    <path
       id="path3819"
       d="m 103.46267,57.904089 v 1.566333 h -1.05833 l -1.48167,0.889 h -6.731"
       style="fill:none;stroke:#000000;stroke-width:0.0423333;stroke-linecap:round;stroke-linejoin:round;stroke-miterlimit:10;stroke-dasharray:none;stroke-opacity:1" />
    <path
       id="path3820"
       d="m 99.822003,60.105422 v -2.836333 m 1.100667,3.090333 v 0.973666 m -1.100667,-1.227666 -5.630333,0.254 m 5.630333,-3.090333 -5.630333,-0.254 m 23.66433,3.344333 h -4.99533"
       style="fill:none;stroke:#000000;stroke-width:0.0423333;stroke-linecap:round;stroke-linejoin:round;stroke-miterlimit:10;stroke-dasharray:none;stroke-opacity:1" />
    <path
       id="path3821"
       d="m 94.19167,56.210755 v 1.058334 h 0.127"
       style="fill:none;stroke:#000000;stroke-width:0.0423333;stroke-linecap:round;stroke-linejoin:round;stroke-miterlimit:10;stroke-dasharray:none;stroke-opacity:1" />
    <path
       id="path3822"
       d="m 94.19167,61.333088 v -1.227666 h 0.127 v -2.836333"
       style="fill:none;stroke:#000000;stroke-width:0.0423333;stroke-linecap:round;stroke-linejoin:round;stroke-miterlimit:10;stroke-dasharray:none;stroke-opacity:1" />
    <path
       id="path3823"
       d="m 89.196337,53.882422 v -0.04233 M 112.86067,45.246423 V 60.359422 M 91.65167,44.272756 V 61.333088 M 89.196337,44.272756 v 17.060332 m 0,-8.551333 v -0.04233 m 2.455333,0.04233 v -0.04233 m -2.455333,0.04233 v -0.04233 m 2.455333,0.04233 v -0.04233 m -2.455333,0.08467 v -0.04233 m 2.455333,0.04233 v -0.04233 m -2.455333,0.04233 v -0.04233 m 2.455333,0.04233 v -0.04233"
       style="fill:none;stroke:#000000;stroke-width:0.0423333;stroke-linecap:round;stroke-linejoin:round;stroke-miterlimit:10;stroke-dasharray:none;stroke-opacity:1" />
    <path
       id="path3824"
       d="m 103.46267,51.638756 h -1.05833 l -1.48167,0.888999 v 0.592667"
       style="fill:none;stroke:#000000;stroke-width:0.0423333;stroke-linecap:round;stroke-linejoin:round;stroke-miterlimit:10;stroke-dasharray:none;stroke-opacity:1" />
    <path
       id="path3825"
       d="m 94.19167,52.527755 h 6.731 m -1.100667,-0.211666 v -0.04233"
       style="fill:none;stroke:#000000;stroke-width:0.0423333;stroke-linecap:round;stroke-linejoin:round;stroke-miterlimit:10;stroke-dasharray:none;stroke-opacity:1" />
    <path
       id="path3826"
       d="m 103.46267,51.638756 v -1.524 h -1.05833 l -1.48167,-0.889 h -6.731"
       style="fill:none;stroke:#000000;stroke-width:0.0423333;stroke-linecap:round;stroke-linejoin:round;stroke-miterlimit:10;stroke-dasharray:none;stroke-opacity:1" />
    <path
       id="path3827"
       d="m 94.19167,52.527755 5.630333,-0.211666 v -2.836333 l -5.630333,-0.254"
       style="fill:none;stroke:#000000;stroke-width:0.0423333;stroke-linecap:round;stroke-linejoin:round;stroke-miterlimit:10;stroke-dasharray:none;stroke-opacity:1" />
    <path
       id="path3828"
       d="m 94.19167,53.374422 v -1.058333 h 0.127"
       style="fill:none;stroke:#000000;stroke-width:0.0423333;stroke-linecap:round;stroke-linejoin:round;stroke-miterlimit:10;stroke-dasharray:none;stroke-opacity:1" />
    <path
       id="path3829"
       d="m 94.19167,44.272756 v 5.207 h 0.127 v 2.836333"
       style="fill:none;stroke:#000000;stroke-width:0.0423333;stroke-linecap:round;stroke-linejoin:round;stroke-miterlimit:10;stroke-dasharray:none;stroke-opacity:1" />
    <path
       id="path3830"
       d="m 103.46267,46.135422 v 1.608667 h -1.05833 l -1.48167,0.846667 h -6.731"
       style="fill:none;stroke:#000000;stroke-width:0.0423333;stroke-linecap:round;stroke-linejoin:round;stroke-miterlimit:10;stroke-dasharray:none;stroke-opacity:1" />
    <path
       id="path3831"
       d="M 99.822003,48.379089 V 45.542756"
       style="fill:none;stroke:#000000;stroke-width:0.0423333;stroke-linecap:round;stroke-linejoin:round;stroke-miterlimit:10;stroke-dasharray:none;stroke-opacity:1" />
    <path
       id="path3832"
       d="m 103.46267,46.135422 h -1.05833 l -1.48167,-0.804333 h -6.731"
       style="fill:none;stroke:#000000;stroke-width:0.0423333;stroke-linecap:round;stroke-linejoin:round;stroke-miterlimit:10;stroke-dasharray:none;stroke-opacity:1" />
    <path
       id="path3833"
       d="m 99.822003,45.542756 v -0.04233 m 1.100667,-0.169333 V 44.738427 M 99.822003,45.54276 94.19167,45.331093 m 5.630333,3.048 -5.630333,0.211667"
       style="fill:none;stroke:#000000;stroke-width:0.0423333;stroke-linecap:round;stroke-linejoin:round;stroke-miterlimit:10;stroke-dasharray:none;stroke-opacity:1" />
    <path
       id="path3834"
       d="m 117.856,42.240756 h -10.668 l -0.29633,0.08467 -0.254,0.254 -0.0847,0.338666"
       style="fill:none;stroke:#000000;stroke-width:0.0423333;stroke-linecap:round;stroke-linejoin:round;stroke-miterlimit:10;stroke-dasharray:none;stroke-opacity:1" />
    <path
       id="path3835"
       d="M 106.553,44.272756 H 89.196337 m 11.726333,0.973667 v -0.973667 m 16.93333,0.973667 h -4.99533"
       style="fill:none;stroke:#000000;stroke-width:0.0423333;stroke-linecap:round;stroke-linejoin:round;stroke-miterlimit:10;stroke-dasharray:none;stroke-opacity:1" />
    <path
       id="path3836"
       d="m 112.86067,58.242755 h 2.37067"
       style="fill:none;stroke:#000000;stroke-width:0.254;stroke-linecap:round;stroke-linejoin:round;stroke-miterlimit:10;stroke-dasharray:none;stroke-opacity:1" />
    <path
       id="path3837"
       d="m 112.86067,59.131755 h 2.37067 v -0.889"
       style="fill:none;stroke:#000000;stroke-width:0.254;stroke-linecap:round;stroke-linejoin:round;stroke-miterlimit:10;stroke-dasharray:none;stroke-opacity:1" />
    <path
       id="path3838"
       d="m 115.23134,59.131755 1.69333,-0.254 v -0.381 l -1.69333,-0.254"
       style="fill:none;stroke:#000000;stroke-width:0.254;stroke-linecap:round;stroke-linejoin:round;stroke-miterlimit:10;stroke-dasharray:none;stroke-opacity:1" />
    <path
       id="path3839"
       d="m 115.23134,58.666088 h 1.69333 m -1.69333,0.04233 h 1.69333"
       style="fill:none;stroke:#000000;stroke-width:0.254;stroke-linecap:round;stroke-linejoin:round;stroke-miterlimit:10;stroke-dasharray:none;stroke-opacity:1" />
    <path
       id="path3840"
       d="m 112.86067,54.813755 v -0.04233"
       style="fill:none;stroke:#000000;stroke-width:0.0423333;stroke-linecap:round;stroke-linejoin:round;stroke-miterlimit:10;stroke-dasharray:none;stroke-opacity:1" />
    <path
       id="path3841"
       d="m 112.86067,54.305755 h 2.37067"
       style="fill:none;stroke:#000000;stroke-width:0.254;stroke-linecap:round;stroke-linejoin:round;stroke-miterlimit:10;stroke-dasharray:none;stroke-opacity:1" />
    <path
       id="path3842"
       d="m 112.86067,55.194755 h 2.37067 v -0.889"
       style="fill:none;stroke:#000000;stroke-width:0.254;stroke-linecap:round;stroke-linejoin:round;stroke-miterlimit:10;stroke-dasharray:none;stroke-opacity:1" />
    <path
       id="path3843"
       d="m 115.23134,55.194755 1.69333,-0.254 v -0.381 l -1.69333,-0.254"
       style="fill:none;stroke:#000000;stroke-width:0.254;stroke-linecap:round;stroke-linejoin:round;stroke-miterlimit:10;stroke-dasharray:none;stroke-opacity:1" />
    <path
       id="path3844"
       d="m 115.23134,54.729089 h 1.69333 m -1.69333,0.04233 h 1.69333"
       style="fill:none;stroke:#000000;stroke-width:0.254;stroke-linecap:round;stroke-linejoin:round;stroke-miterlimit:10;stroke-dasharray:none;stroke-opacity:1" />
    <path
       id="path3845"
       d="m 112.86067,50.876756 v -0.04233"
       style="fill:none;stroke:#000000;stroke-width:0.0423333;stroke-linecap:round;stroke-linejoin:round;stroke-miterlimit:10;stroke-dasharray:none;stroke-opacity:1" />
    <path
       id="path3846"
       d="m 112.86067,50.368756 h 2.37067"
       style="fill:none;stroke:#000000;stroke-width:0.254;stroke-linecap:round;stroke-linejoin:round;stroke-miterlimit:10;stroke-dasharray:none;stroke-opacity:1" />
    <path
       id="path3847"
       d="m 112.86067,51.257756 h 2.37067 v -0.889"
       style="fill:none;stroke:#000000;stroke-width:0.254;stroke-linecap:round;stroke-linejoin:round;stroke-miterlimit:10;stroke-dasharray:none;stroke-opacity:1" />
    <path
       id="path3848"
       d="m 115.23134,51.257756 1.69333,-0.254 v -0.381 l -1.69333,-0.254"
       style="fill:none;stroke:#000000;stroke-width:0.254;stroke-linecap:round;stroke-linejoin:round;stroke-miterlimit:10;stroke-dasharray:none;stroke-opacity:1" />
    <path
       id="path3849"
       d="m 115.23134,50.792089 h 1.69333 m -1.69333,0.04233 h 1.69333"
       style="fill:none;stroke:#000000;stroke-width:0.254;stroke-linecap:round;stroke-linejoin:round;stroke-miterlimit:10;stroke-dasharray:none;stroke-opacity:1" />
    <path
       id="path3850"
       d="m 112.86067,46.939756 v -0.04233"
       style="fill:none;stroke:#000000;stroke-width:0.0423333;stroke-linecap:round;stroke-linejoin:round;stroke-miterlimit:10;stroke-dasharray:none;stroke-opacity:1" />
    <path
       id="path3851"
       d="m 112.86067,46.474089 h 2.37067"
       style="fill:none;stroke:#000000;stroke-width:0.254;stroke-linecap:round;stroke-linejoin:round;stroke-miterlimit:10;stroke-dasharray:none;stroke-opacity:1" />
    <path
       id="path3852"
       d="m 112.86067,47.320756 h 2.37067 v -0.846667"
       style="fill:none;stroke:#000000;stroke-width:0.254;stroke-linecap:round;stroke-linejoin:round;stroke-miterlimit:10;stroke-dasharray:none;stroke-opacity:1" />
    <path
       id="path3853"
       d="m 115.23134,47.320756 1.69333,-0.254 v -0.381 l -1.69333,-0.211667"
       style="fill:none;stroke:#000000;stroke-width:0.254;stroke-linecap:round;stroke-linejoin:round;stroke-miterlimit:10;stroke-dasharray:none;stroke-opacity:1" />
    <path
       id="path3854"
       d="m 115.23134,46.855089 h 1.69333 m -1.69333,0.04233 1.69333,0.04233 m -17.526001,-1.397 v 2.878666 m -1.947333,-2.963333 v 3.005667 m -1.058333,-3.048 v 3.090333 m 3.005666,0.973667 v 2.836333 m -1.947333,-2.921 v 3.005666 m -1.058333,-3.047999 v 3.090333 m 3.005666,0.889 v 2.878666 m -1.947333,-2.963333 v 3.048 m -1.058333,-3.090333 v 3.090333 m 3.005666,0.973667 v 2.836333 m -1.947333,-2.921 v 3.005666 m -1.058333,-3.047999 v 3.090333"
       style="fill:none;stroke:#000000;stroke-width:0.254;stroke-linecap:round;stroke-linejoin:round;stroke-miterlimit:10;stroke-dasharray:none;stroke-opacity:1" />
    <path
       id="path3855"
       d="m 85.93667,45.331089 v 0 h 3.259667 v 0 z"
       style="fill:#ff0000;fill-opacity:1;fill-rule:evenodd;stroke:none;stroke-width:0.352778" />
    <path
       id="path3858"
       d="m 85.93667,46.897422 v 0 h 3.259667 v 0 z"
       style="fill:#ff0000;fill-opacity:1;fill-rule:evenodd;stroke:none;stroke-width:0.352778" />
    <path
       id="path3903"
       d="m 85.93667,54.136422 v 0 h 3.259667 v 0 z"
       style="fill:#00ff00;fill-opacity:1;fill-rule:evenodd;stroke:none;stroke-width:0.352778" />
    <path
       id="path3906"
       d="m 85.93667,55.660422 v 0 h 3.259667 v 0 z"
       style="fill:#00ff00;fill-opacity:1;fill-rule:evenodd;stroke:none;stroke-width:0.352778" />
    <path
       id="path3919"
       d="m 85.93667,58.496755 v 0 h 3.259667 v 0 z"
       style="fill:#767676;fill-opacity:1;fill-rule:evenodd;stroke:none;stroke-width:0.352778" />
    <path
       id="path3922"
       d="m 85.93667,60.063088 v 0 h 3.259667 v 0 z"
       style="fill:#767676;fill-opacity:1;fill-rule:evenodd;stroke:none;stroke-width:0.352778" />
    <path
       id="path3995"
       d="m 119.68026,44.521313 v 2.207617 c 0,0.08062 0.0227,0.139527 0.0703,0.177767 0.0496,0.03927 0.11782,0.05788 0.2067,0.05788 h 0.1447 v 0.08682 h -1.06247 v -0.08682 h 0.13229 c 0.0961,0 0.1664,-0.0186 0.21084,-0.05788 0.0434,-0.03824 0.0662,-0.09715 0.0662,-0.177767 v -1.756998 c 0,-0.03824 -0.0124,-0.07028 -0.0372,-0.09509 -0.0248,-0.02481 -0.062,-0.03721 -0.11162,-0.03721 h -0.26045 v -0.08682 h 0.13229 c 0.11576,0 0.20877,-0.0186 0.28112,-0.05788 0.0744,-0.03824 0.13022,-0.09612 0.1695,-0.173633 z m 0,0"
       style="fill:#000000;fill-opacity:1;fill-rule:nonzero;stroke:none;stroke-width:0.352778"
       aria-label="1" />
    <path
       id="path3998"
       d="m 120.18152,50.000049 c 0,-0.173633 -0.0393,-0.305925 -0.11576,-0.396875 -0.0775,-0.09302 -0.19327,-0.14056 -0.34726,-0.14056 -0.11886,0 -0.21911,0.03204 -0.30179,0.09508 -0.0806,0.06098 -0.11989,0.140559 -0.11989,0.239778 0,0.05788 0.0186,0.106454 0.0579,0.144694 0.0269,0.03927 0.0413,0.07751 0.0413,0.115755 0,0.04961 -0.0124,0.08682 -0.0372,0.111621 -0.0227,0.02274 -0.0579,0.03307 -0.10749,0.03307 -0.0579,0 -0.10542,-0.01654 -0.14056,-0.04961 -0.0331,-0.03307 -0.0496,-0.08888 -0.0496,-0.169499 0,-0.203605 0.0724,-0.357601 0.21911,-0.46302 0.14573,-0.107487 0.30179,-0.161231 0.46716,-0.161231 0.23151,0 0.40204,0.05995 0.51263,0.177767 0.11265,0.115755 0.1695,0.260449 0.1695,0.434082 0,0.115755 -0.0279,0.233577 -0.0827,0.3514 -0.0527,0.115755 -0.13642,0.226342 -0.25218,0.330729 -0.28112,0.272851 -0.49816,0.49506 -0.64905,0.665592 -0.14883,0.168465 -0.23875,0.28112 -0.26872,0.338998 h 0.8599 c 0.0879,0 0.16123,-0.03307 0.2191,-0.09922 0.0579,-0.06821 0.0961,-0.170532 0.11576,-0.305925 h 0.0868 l -0.0868,0.624252 h -1.35186 v -0.19017 c 0.0465,-0.08785 0.12506,-0.199471 0.23565,-0.334863 0.11265,-0.134359 0.26148,-0.294555 0.44648,-0.479557 0.16537,-0.165365 0.28629,-0.31936 0.3638,-0.463021 0.0765,-0.145727 0.11576,-0.282153 0.11576,-0.409277 z m 0,0"
       style="fill:#000000;fill-opacity:1;fill-rule:nonzero;stroke:none;stroke-width:0.352778"
       aria-label="2" />
    <path
       id="path4001"
       d="m 120.4585,55.991415 c 0,0.185002 -0.0682,0.347266 -0.20257,0.487826 -0.13539,0.14056 -0.32452,0.21084 -0.56637,0.21084 -0.17673,0 -0.32866,-0.04754 -0.45475,-0.144694 -0.12403,-0.09612 -0.18604,-0.20774 -0.18604,-0.334864 0,-0.05788 0.0186,-0.10852 0.0579,-0.152962 0.0382,-0.04341 0.0765,-0.06615 0.11575,-0.06615 0.0579,0 0.0992,0.02274 0.12403,0.06615 0.0248,0.04444 0.0372,0.08062 0.0372,0.107487 0,0.04961 -0.0103,0.08888 -0.0289,0.115755 -0.0196,0.03927 -0.0289,0.07338 -0.0289,0.103353 0,0.05788 0.0351,0.106454 0.10748,0.144694 0.0713,0.03927 0.1509,0.05788 0.23978,0.05788 0.17364,0 0.30386,-0.05064 0.39274,-0.152962 0.0879,-0.101286 0.1323,-0.258383 0.1323,-0.471289 0,-0.173633 -0.0476,-0.314193 -0.14056,-0.42168 -0.091,-0.107487 -0.26355,-0.161231 -0.51677,-0.161231 v -0.09922 c 0.19534,0 0.339,-0.04548 0.42995,-0.136426 0.093,-0.09302 0.14056,-0.223242 0.14056,-0.388607 0,-0.134359 -0.0372,-0.253214 -0.11162,-0.355534 -0.0724,-0.101286 -0.185,-0.152962 -0.339,-0.152962 -0.0692,0 -0.14263,0.01654 -0.21911,0.04961 -0.0775,0.03307 -0.11575,0.08888 -0.11575,0.165365 0,0.08062 0.009,0.130225 0.0289,0.148828 0.0186,0.01964 0.0289,0.04341 0.0289,0.07028 0,0.04961 -0.0103,0.08992 -0.0289,0.119889 -0.0196,0.02791 -0.0537,0.04134 -0.10336,0.04134 -0.0393,0 -0.0765,-0.01344 -0.11162,-0.04134 -0.0331,-0.02997 -0.0496,-0.08371 -0.0496,-0.16123 0,-0.145728 0.0631,-0.264583 0.19017,-0.355534 0.12609,-0.09302 0.27285,-0.14056 0.43822,-0.14056 0.19223,0 0.34726,0.06098 0.46302,0.181901 0.11782,0.121957 0.17777,0.250114 0.17777,0.384473 0,0.146761 -0.0372,0.270784 -0.11163,0.37207 -0.0723,0.10232 -0.18603,0.177767 -0.34313,0.227376 0.21498,0.07751 0.3607,0.179834 0.43822,0.305925 0.0765,0.124023 0.11575,0.250114 0.11575,0.376204 z m 0,0"
       style="fill:#000000;fill-opacity:1;fill-rule:nonzero;stroke:none;stroke-width:0.352778"
       aria-label="3" />
    <path
       id="path4004"
       d="m 120.25386,61.040201 c 0,0.06925 0.0186,0.118856 0.0579,0.148828 0.0382,0.02791 0.092,0.04134 0.16123,0.04134 h 0.12816 v 0.08682 h -0.95912 v -0.08682 h 0.16124 c 0.0765,0 0.13229,-0.01344 0.16536,-0.04134 0.0331,-0.02997 0.0496,-0.07958 0.0496,-0.148828 v -0.479557 h -0.97152 v -0.07441 l 1.06247,-1.686719 h 0.14469 v 1.674316 h 0.39274 v 0.08682 h -0.39274 z m -0.24804,-1.876888 -0.83096,1.310514 h 0.84336 v -1.310514 z m 0,0"
       style="fill:#000000;fill-opacity:1;fill-rule:nonzero;stroke:none;stroke-width:0.352778"
       aria-label="4" />
    <rect
       style="fill:#636363;fill-opacity:1;stroke:#000000;stroke-width:0.2;stroke-linecap:round;stroke-linejoin:miter;stroke-dasharray:none;stroke-dashoffset:3.20001;stroke-opacity:1"
       id="rect1"
       width="6.4505486"
       height="1.6634933"
       x="82.76252"
       y="46.073284" />
    <rect
       style="fill:#636363;fill-opacity:1;stroke:#000000;stroke-width:0.2;stroke-linecap:round;stroke-linejoin:miter;stroke-dasharray:none;stroke-dashoffset:3.20001;stroke-opacity:1"
       id="rect1-1"
       width="6.4505486"
       height="1.6634933"
       x="82.76252"
       y="57.873806" />
    <rect
       style="fill:#636363;fill-opacity:1;stroke:#000000;stroke-width:0.2;stroke-linecap:round;stroke-linejoin:miter;stroke-dasharray:none;stroke-dashoffset:3.20001;stroke-opacity:1"
       id="rect1-1-9"
       width="6.4505486"
       height="1.6634933"
       x="82.76252"
       y="53.931751" />
    <rect
       style="fill:#636363;fill-opacity:1;stroke:#000000;stroke-width:0.2;stroke-linecap:round;stroke-linejoin:miter;stroke-dasharray:none;stroke-dashoffset:3.20001;stroke-opacity:1"
       id="rect1-1-6"
       width="6.4505486"
       height="1.6634933"
       x="82.76252"
       y="49.980263" />
  </g>
</svg>
