<?xml version="1.0" encoding="UTF-8" standalone="no"?>
<!-- Created with Inkscape (http://www.inkscape.org/) -->

<svg
   width="24.030743mm"
   height="29.42849mm"
   viewBox="0 0 24.030742 29.42849"
   version="1.1"
   id="svg1"
   inkscape:version="1.3.2 (1:1.3.2+202311252150+091e20ef0f)"
   sodipodi:docname="hc_phb_2_3_ey.svg"
   inkscape:export-filename="hc_phb_2_3_ey.png"
   inkscape:export-xdpi="541.17346"
   inkscape:export-ydpi="541.17346"
   xmlns:inkscape="http://www.inkscape.org/namespaces/inkscape"
   xmlns:sodipodi="http://sodipodi.sourceforge.net/DTD/sodipodi-0.dtd"
   xmlns="http://www.w3.org/2000/svg"
   xmlns:svg="http://www.w3.org/2000/svg">
  <sodipodi:namedview
     id="namedview1"
     pagecolor="#ffffff"
     bordercolor="#666666"
     borderopacity="1.0"
     inkscape:showpageshadow="2"
     inkscape:pageopacity="0.0"
     inkscape:pagecheckerboard="0"
     inkscape:deskcolor="#d1d1d1"
     inkscape:document-units="mm"
     inkscape:zoom="3.72119"
     inkscape:cx="61.673819"
     inkscape:cy="53.477517"
     inkscape:window-width="1430"
     inkscape:window-height="936"
     inkscape:window-x="0"
     inkscape:window-y="0"
     inkscape:window-maximized="1"
     inkscape:current-layer="layer1" />
  <defs
     id="defs1" />
  <g
     inkscape:label="Layer 1"
     inkscape:groupmode="layer"
     id="layer1"
     transform="translate(-113.24257,-109.36998)">
    <path
       id="path4122"
       d="m 120.99165,117.19983 v 3.302 h 3.81 v -3.302 z"
       style="fill:none;stroke:#000000;stroke-width:0.254;stroke-linecap:round;stroke-linejoin:round;stroke-miterlimit:10;stroke-dasharray:none;stroke-opacity:1" />
    <path
       id="path4123"
       d="m 125.52132,117.19983 v 3.302 h 3.85233 v -3.302 z"
       style="fill:none;stroke:#000000;stroke-width:0.254;stroke-linecap:round;stroke-linejoin:round;stroke-miterlimit:10;stroke-dasharray:none;stroke-opacity:1" />
    <path
       id="path4124"
       d="m 118.91732,120.62883 h -0.80434 v 4.064 h 0.80434"
       style="fill:none;stroke:#000000;stroke-width:0.254;stroke-linecap:round;stroke-linejoin:round;stroke-miterlimit:10;stroke-dasharray:none;stroke-opacity:1" />
    <path
       id="path4125"
       d="m 120.99165,124.7775 v 3.302 h 3.81 v -3.302 z"
       style="fill:none;stroke:#000000;stroke-width:0.254;stroke-linecap:round;stroke-linejoin:round;stroke-miterlimit:10;stroke-dasharray:none;stroke-opacity:1" />
    <path
       id="path4126"
       d="m 125.52132,124.7775 v 3.302 h 3.85233 v -3.302 z"
       style="fill:none;stroke:#000000;stroke-width:0.254;stroke-linecap:round;stroke-linejoin:round;stroke-miterlimit:10;stroke-dasharray:none;stroke-opacity:1" />
    <path
       id="path4127"
       d="m 120.99165,124.31183 v -3.34433 h 3.81 v 3.34433 z"
       style="fill:none;stroke:#000000;stroke-width:0.254;stroke-linecap:round;stroke-linejoin:round;stroke-miterlimit:10;stroke-dasharray:none;stroke-opacity:1" />
    <path
       id="path4128"
       d="m 125.52132,124.31183 v -3.34433 h 3.85233 v 3.34433 z"
       style="fill:none;stroke:#000000;stroke-width:0.254;stroke-linecap:round;stroke-linejoin:round;stroke-miterlimit:10;stroke-dasharray:none;stroke-opacity:1" />
    <path
       id="path4129"
       d="M 131.57498,133.6675 V 111.78117 H 118.91732 V 133.6675 Z"
       style="fill:none;stroke:#000000;stroke-width:0.254;stroke-linecap:round;stroke-linejoin:round;stroke-miterlimit:10;stroke-dasharray:none;stroke-opacity:1" />
    <path
       id="path4130"
       d="M 130.47432,129.13783 V 116.2685 h -10.541 v 12.86933 z"
       style="fill:none;stroke:#000000;stroke-width:0.254;stroke-linecap:round;stroke-linejoin:round;stroke-miterlimit:10;stroke-dasharray:none;stroke-opacity:1" />
    <path
       id="path4598"
       d="m 116.35466,116.5799 v 2.33577 c 0,0.0827 0.0258,0.1447 0.0786,0.18604 0.0517,0.0413 0.12402,0.062 0.21497,0.062 h 0.15296 v 0.091 h -1.12034 v -0.091 h 0.13642 c 0.10439,0 0.1788,-0.0207 0.22324,-0.062 0.0465,-0.0413 0.0703,-0.10335 0.0703,-0.18604 v -1.86035 c 0,-0.0413 -0.0145,-0.0744 -0.0413,-0.0992 -0.0248,-0.0248 -0.062,-0.0372 -0.11162,-0.0372 h -0.27698 v -0.0909 h 0.13642 c 0.12403,0 0.22428,-0.0207 0.30179,-0.062 0.0765,-0.0413 0.13643,-0.10335 0.17777,-0.18603 z m 0,0"
       style="fill:#000000;fill-opacity:1;fill-rule:nonzero;stroke:none;stroke-width:0.352778"
       aria-label="1" />
    <path
       id="path4606"
       d="m 116.49521,122.26534 c 0,-0.18397 -0.0413,-0.32453 -0.12402,-0.42168 -0.0827,-0.0961 -0.20567,-0.1447 -0.36794,-0.1447 -0.12402,0 -0.23047,0.0331 -0.31832,0.0992 -0.0858,0.0661 -0.12816,0.1509 -0.12816,0.25218 0,0.0641 0.0207,0.11576 0.062,0.1571 0.03,0.0393 0.0455,0.0786 0.0455,0.11989 0,0.0527 -0.0145,0.091 -0.0413,0.11575 -0.0248,0.0248 -0.062,0.0372 -0.11162,0.0372 -0.061,0 -0.10955,-0.0176 -0.14469,-0.0537 -0.0362,-0.0351 -0.0537,-0.093 -0.0537,-0.17363 0,-0.21498 0.0754,-0.37828 0.22737,-0.49196 0.154,-0.11266 0.31833,-0.1695 0.49196,-0.1695 0.24805,0 0.42995,0.062 0.5457,0.18603 0.11783,0.12196 0.17777,0.27492 0.17777,0.45889 0,0.12402 -0.0289,0.24805 -0.0868,0.37207 -0.0558,0.12196 -0.14366,0.23874 -0.26458,0.3514 -0.29765,0.28732 -0.5271,0.51986 -0.68626,0.69866 -0.1602,0.17984 -0.25528,0.29973 -0.28526,0.35967 h 0.90951 c 0.0909,0 0.1664,-0.0351 0.22738,-0.10748 0.063,-0.0713 0.10438,-0.17881 0.12402,-0.32247 h 0.0951 l -0.0951,0.66146 h -1.4304 v -0.19843 c 0.0517,-0.093 0.13642,-0.21188 0.25218,-0.35554 0.11782,-0.14263 0.27492,-0.31109 0.47129,-0.50436 0.17363,-0.1757 0.30179,-0.34003 0.38447,-0.49196 0.0827,-0.154 0.12402,-0.29869 0.12402,-0.43408 z m 0,0"
       style="fill:#000000;fill-opacity:1;fill-rule:nonzero;stroke:none;stroke-width:0.352778"
       aria-label="2" />
    <path
       id="path4614"
       d="m 116.78874,128.53782 c 0,0.19637 -0.0734,0.36794 -0.21911,0.51677 -0.14366,0.14883 -0.34313,0.22324 -0.59945,0.22324 -0.185,0 -0.34313,-0.0506 -0.47542,-0.15296 -0.13229,-0.10439 -0.19844,-0.22324 -0.19844,-0.35554 0,-0.0599 0.0207,-0.11368 0.062,-0.16123 0.0413,-0.0465 0.0806,-0.0703 0.11989,-0.0703 0.0631,0 0.10749,0.0238 0.13229,0.0703 0.0248,0.0476 0.0372,0.0858 0.0372,0.11576 0,0.0496 -0.0103,0.0899 -0.0289,0.11989 -0.0227,0.0413 -0.0331,0.0775 -0.0331,0.10748 0,0.0641 0.0382,0.11576 0.11576,0.1571 0.0765,0.0413 0.16226,0.062 0.25631,0.062 0.18397,0 0.32246,-0.0537 0.41341,-0.16123 0.093,-0.10955 0.14056,-0.27698 0.14056,-0.50023 0,-0.18396 -0.0496,-0.33279 -0.14883,-0.44648 -0.0971,-0.11265 -0.27905,-0.1695 -0.5457,-0.1695 v -0.10749 c 0.20671,0 0.3576,-0.0475 0.45475,-0.14469 0.0961,-0.0992 0.1447,-0.23564 0.1447,-0.40928 0,-0.14262 -0.0393,-0.26871 -0.11576,-0.3762 -0.0775,-0.10749 -0.1974,-0.16123 -0.35967,-0.16123 -0.0723,0 -0.14882,0.0186 -0.23151,0.0537 -0.0827,0.0362 -0.12402,0.0951 -0.12402,0.17777 0,0.0806 0.0103,0.13126 0.0331,0.15296 0.0186,0.0196 0.0289,0.0444 0.0289,0.0744 0,0.0527 -0.0114,0.0941 -0.0331,0.12403 -0.0196,0.031 -0.0537,0.0455 -0.10335,0.0455 -0.0414,0 -0.0806,-0.0145 -0.11576,-0.0455 -0.0362,-0.03 -0.0537,-0.0868 -0.0537,-0.1695 0,-0.154 0.0661,-0.27905 0.19843,-0.37621 0.13436,-0.0961 0.28939,-0.14469 0.46303,-0.14469 0.2036,0 0.36586,0.0651 0.48782,0.1943 0.12402,0.12713 0.18604,0.26252 0.18604,0.40515 0,0.15503 -0.0393,0.28525 -0.11576,0.39274 -0.0744,0.10749 -0.1943,0.18603 -0.35967,0.23564 0.22531,0.0827 0.38034,0.19224 0.46302,0.3266 0.0827,0.13229 0.12403,0.26458 0.12403,0.39687 z m 0,0"
       style="fill:#000000;fill-opacity:1;fill-rule:nonzero;stroke:none;stroke-width:0.352778"
       aria-label="3" />
    <path
       id="path4615"
       d="m 133.87813,118.83402 c 0,0.0724 0.0207,0.12403 0.062,0.1571 0.0413,0.031 0.0971,0.0455 0.1695,0.0455 h 0.13643 v 0.0909 h -1.01286 v -0.0909 h 0.1695 c 0.0827,0 0.14159,-0.0145 0.17776,-0.0455 0.0351,-0.0331 0.0538,-0.0847 0.0538,-0.1571 v -0.50436 h -1.03353 v -0.0786 l 1.12448,-1.7818 h 0.15296 v 1.76527 h 0.41755 v 0.0951 h -0.41755 z m -0.26045,-1.98024 -0.87643,1.3808 h 0.89297 v -1.3808 z m 0,0"
       style="fill:#000000;fill-opacity:1;fill-rule:nonzero;stroke:none;stroke-width:0.352778"
       aria-label="4" />
    <path
       id="path4623"
       d="m 133.44199,122.43173 c 0.19223,0 0.3514,0.0744 0.47542,0.22324 0.12402,0.14883 0.18604,0.34624 0.18604,0.59118 0,0.27905 -0.0651,0.50023 -0.19431,0.66559 -0.12712,0.1633 -0.32453,0.24392 -0.59118,0.24392 -0.185,0 -0.34933,-0.0537 -0.49196,-0.16123 -0.14366,-0.10956 -0.21497,-0.24082 -0.21497,-0.39274 0,-0.0631 0.0176,-0.11679 0.0537,-0.16123 0.0351,-0.0465 0.0837,-0.0703 0.1447,-0.0703 0.0599,0 0.10025,0.0207 0.11989,0.062 0.0217,0.0413 0.0331,0.0775 0.0331,0.10748 0,0.061 -0.0155,0.10646 -0.0455,0.13643 -0.031,0.0413 -0.0455,0.0827 -0.0455,0.12402 0,0.0827 0.0475,0.1447 0.14469,0.18604 0.0992,0.0413 0.20464,0.062 0.31833,0.062 0.16226,0 0.28629,-0.0661 0.37207,-0.19844 0.0879,-0.13436 0.13229,-0.32453 0.13229,-0.57051 0,-0.2067 -0.0393,-0.3731 -0.11575,-0.50022 -0.0744,-0.12919 -0.18914,-0.19431 -0.34313,-0.19431 -0.11369,0 -0.21084,0.0207 -0.29353,0.062 -0.0827,0.0413 -0.16019,0.12815 -0.23151,0.26044 l -0.13642,-0.0124 0.0744,-1.40146 h 1.26091 l -0.0455,0.23151 h -1.10794 l -0.0579,1.01286 c 0.10129,-0.14263 0.20051,-0.22945 0.29766,-0.26045 0.0961,-0.03 0.19637,-0.0455 0.30179,-0.0455 z m 0,0"
       style="fill:#000000;fill-opacity:1;fill-rule:nonzero;stroke:none;stroke-width:0.352778"
       aria-label="5" />
    <path
       id="path4631"
       d="m 132.89731,128.11407 c 0,0.30902 0.0537,0.5488 0.16123,0.71934 0.10749,0.16846 0.23771,0.25218 0.39274,0.25218 0.154,0 0.27079,-0.0558 0.3514,-0.1695 0.0827,-0.11266 0.12403,-0.3235 0.12403,-0.63252 0,-0.20361 -0.0445,-0.36174 -0.1323,-0.47543 -0.0858,-0.11265 -0.18913,-0.16949 -0.31006,-0.16949 -0.11368,0 -0.2191,0.0331 -0.31832,0.0992 -0.0971,0.0662 -0.18604,0.19224 -0.26872,0.37621 z m 0.59945,-0.62839 c 0.24804,0 0.42581,0.0827 0.5333,0.24805 0.10748,0.1633 0.16123,0.34623 0.16123,0.54984 0,0.30902 -0.0744,0.53743 -0.22324,0.68626 -0.14883,0.14883 -0.32143,0.22324 -0.51677,0.22324 -0.27595,0 -0.48576,-0.10438 -0.62838,-0.31419 -0.14366,-0.21187 -0.21498,-0.5178 -0.21498,-0.91777 0,-0.47129 0.0868,-0.83199 0.26045,-1.08314 0.17363,-0.25011 0.40928,-0.37621 0.70694,-0.37621 0.14262,0 0.25734,0.0413 0.34313,0.12403 0.0879,0.0806 0.13229,0.15193 0.13229,0.21497 0,0.061 -0.0124,0.10646 -0.0372,0.13643 -0.0248,0.031 -0.0692,0.0455 -0.13229,0.0455 -0.0496,0 -0.0889,-0.0124 -0.11576,-0.0372 -0.0248,-0.0248 -0.0372,-0.0631 -0.0372,-0.11576 0,-0.0186 0.005,-0.0393 0.0165,-0.062 0,-0.0186 0,-0.0393 0,-0.062 0,-0.0413 -0.0155,-0.0744 -0.0455,-0.0992 -0.031,-0.0248 -0.0868,-0.0372 -0.1695,-0.0372 -0.17363,0 -0.32246,0.0806 -0.44648,0.23978 -0.12403,0.1571 -0.18604,0.5023 -0.18604,1.03353 0.0631,-0.13229 0.14883,-0.23151 0.25632,-0.29766 0.10748,-0.0661 0.22117,-0.0992 0.34313,-0.0992 z m 0,0"
       style="fill:#000000;fill-opacity:1;fill-rule:nonzero;stroke:none;stroke-width:0.352778"
       aria-label="6" />
    <path
       id="path4639"
       d="m 127.51098,117.45383 -0.42333,0.0847 h 0.889 z"
       style="fill:#767676;fill-opacity:1;fill-rule:evenodd;stroke:none;stroke-width:0.352778" />
    <path
       id="path4640"
       d="m 127.08765,117.5385 -0.381,0.21167 h 1.651 z"
       style="fill:#767676;fill-opacity:1;fill-rule:evenodd;stroke:none;stroke-width:0.352778" />
    <path
       id="path4641"
       d="m 127.08765,117.5385 h 0.889 l 0.381,0.21167 z"
       style="fill:#767676;fill-opacity:1;fill-rule:evenodd;stroke:none;stroke-width:0.352778" />
    <path
       id="path4642"
       d="m 126.70665,117.75017 -0.33867,0.29633 h 2.286 z"
       style="fill:#767676;fill-opacity:1;fill-rule:evenodd;stroke:none;stroke-width:0.352778" />
    <path
       id="path4643"
       d="m 126.70665,117.75017 h 1.651 l 0.29633,0.29633 z"
       style="fill:#767676;fill-opacity:1;fill-rule:evenodd;stroke:none;stroke-width:0.352778" />
    <path
       id="path4644"
       d="m 126.36798,118.0465 -0.21173,0.381 h 2.7094 z"
       style="fill:#767676;fill-opacity:1;fill-rule:evenodd;stroke:none;stroke-width:0.352778" />
    <path
       id="path4645"
       d="m 126.36798,118.0465 h 2.286 l 0.21167,0.381 z"
       style="fill:#767676;fill-opacity:1;fill-rule:evenodd;stroke:none;stroke-width:0.352778" />
    <path
       id="path4646"
       d="m 126.15625,118.4275 -0.0423,0.46567 h 2.83634 z"
       style="fill:#767676;fill-opacity:1;fill-rule:evenodd;stroke:none;stroke-width:0.352778" />
    <path
       id="path4647"
       d="m 126.15625,118.4275 h 2.7094 l 0.0847,0.46567 z"
       style="fill:#767676;fill-opacity:1;fill-rule:evenodd;stroke:none;stroke-width:0.352778" />
    <path
       id="path4648"
       d="m 126.11398,118.89317 0.0423,0.42333 h 2.7094 z"
       style="fill:#767676;fill-opacity:1;fill-rule:evenodd;stroke:none;stroke-width:0.352778" />
    <path
       id="path4649"
       d="m 126.11398,118.89317 h 2.83634 l -0.0847,0.42333 z"
       style="fill:#767676;fill-opacity:1;fill-rule:evenodd;stroke:none;stroke-width:0.352778" />
    <path
       id="path4650"
       d="m 126.15625,119.3165 0.21173,0.381 h 2.286 z"
       style="fill:#767676;fill-opacity:1;fill-rule:evenodd;stroke:none;stroke-width:0.352778" />
    <path
       id="path4651"
       d="m 126.15625,119.3165 h 2.7094 l -0.21167,0.381 z"
       style="fill:#767676;fill-opacity:1;fill-rule:evenodd;stroke:none;stroke-width:0.352778" />
    <path
       id="path4652"
       d="m 126.36798,119.6975 0.33867,0.33866 h 1.651 z"
       style="fill:#767676;fill-opacity:1;fill-rule:evenodd;stroke:none;stroke-width:0.352778" />
    <path
       id="path4653"
       d="m 126.36798,119.6975 h 2.286 l -0.29633,0.33866 z"
       style="fill:#767676;fill-opacity:1;fill-rule:evenodd;stroke:none;stroke-width:0.352778" />
    <path
       id="path4654"
       d="m 126.70665,120.03616 0.381,0.21167 h 0.889 z"
       style="fill:#767676;fill-opacity:1;fill-rule:evenodd;stroke:none;stroke-width:0.352778" />
    <path
       id="path4655"
       d="m 126.70665,120.03616 h 1.651 l -0.381,0.21167 z"
       style="fill:#767676;fill-opacity:1;fill-rule:evenodd;stroke:none;stroke-width:0.352778" />
    <path
       id="path4656"
       d="m 127.08765,120.24783 h 0.889 l -0.46567,0.0423 z"
       style="fill:#767676;fill-opacity:1;fill-rule:evenodd;stroke:none;stroke-width:0.352778" />
    <path
       id="path4657"
       d="m 127.51098,121.26383 -0.42333,0.0423 h 0.889 z"
       style="fill:#767676;fill-opacity:1;fill-rule:evenodd;stroke:none;stroke-width:0.352778" />
    <path
       id="path4658"
       d="m 127.08765,121.30616 -0.381,0.21167 h 1.651 z"
       style="fill:#767676;fill-opacity:1;fill-rule:evenodd;stroke:none;stroke-width:0.352778" />
    <path
       id="path4659"
       d="m 127.08765,121.30616 h 0.889 l 0.381,0.21167 z"
       style="fill:#767676;fill-opacity:1;fill-rule:evenodd;stroke:none;stroke-width:0.352778" />
    <path
       id="path4660"
       d="m 126.70665,121.51783 -0.33867,0.29633 h 2.286 z"
       style="fill:#767676;fill-opacity:1;fill-rule:evenodd;stroke:none;stroke-width:0.352778" />
    <path
       id="path4661"
       d="m 126.70665,121.51783 h 1.651 l 0.29633,0.29633 z"
       style="fill:#767676;fill-opacity:1;fill-rule:evenodd;stroke:none;stroke-width:0.352778" />
    <path
       id="path4662"
       d="m 126.36798,121.81416 -0.21173,0.42334 h 2.7094 z"
       style="fill:#767676;fill-opacity:1;fill-rule:evenodd;stroke:none;stroke-width:0.352778" />
    <path
       id="path4663"
       d="m 126.36798,121.81416 h 2.286 l 0.21167,0.42334 z"
       style="fill:#767676;fill-opacity:1;fill-rule:evenodd;stroke:none;stroke-width:0.352778" />
    <path
       id="path4664"
       d="m 126.15625,122.2375 -0.0423,0.42333 h 2.83634 z"
       style="fill:#767676;fill-opacity:1;fill-rule:evenodd;stroke:none;stroke-width:0.352778" />
    <path
       id="path4665"
       d="m 126.15625,122.2375 h 2.7094 l 0.0847,0.42333 z"
       style="fill:#767676;fill-opacity:1;fill-rule:evenodd;stroke:none;stroke-width:0.352778" />
    <path
       id="path4666"
       d="m 126.11398,122.66083 0.0423,0.42333 h 2.7094 z"
       style="fill:#767676;fill-opacity:1;fill-rule:evenodd;stroke:none;stroke-width:0.352778" />
    <path
       id="path4667"
       d="m 126.11398,122.66083 h 2.83634 l -0.0847,0.42333 z"
       style="fill:#767676;fill-opacity:1;fill-rule:evenodd;stroke:none;stroke-width:0.352778" />
    <path
       id="path4668"
       d="m 126.15625,123.08416 0.21173,0.42334 h 2.286 z"
       style="fill:#767676;fill-opacity:1;fill-rule:evenodd;stroke:none;stroke-width:0.352778" />
    <path
       id="path4669"
       d="m 126.15625,123.08416 h 2.7094 l -0.21167,0.42334 z"
       style="fill:#767676;fill-opacity:1;fill-rule:evenodd;stroke:none;stroke-width:0.352778" />
    <path
       id="path4670"
       d="m 126.36798,123.5075 0.33867,0.29633 h 1.651 z"
       style="fill:#767676;fill-opacity:1;fill-rule:evenodd;stroke:none;stroke-width:0.352778" />
    <path
       id="path4671"
       d="m 126.36798,123.5075 h 2.286 l -0.29633,0.29633 z"
       style="fill:#767676;fill-opacity:1;fill-rule:evenodd;stroke:none;stroke-width:0.352778" />
    <path
       id="path4672"
       d="m 126.70665,123.80383 0.381,0.21167 h 0.889 z"
       style="fill:#767676;fill-opacity:1;fill-rule:evenodd;stroke:none;stroke-width:0.352778" />
    <path
       id="path4673"
       d="m 126.70665,123.80383 h 1.651 l -0.381,0.21167 z"
       style="fill:#767676;fill-opacity:1;fill-rule:evenodd;stroke:none;stroke-width:0.352778" />
    <path
       id="path4674"
       d="m 127.08765,124.0155 h 0.889 l -0.46567,0.0423 z"
       style="fill:#767676;fill-opacity:1;fill-rule:evenodd;stroke:none;stroke-width:0.352778" />
    <path
       id="path4675"
       d="m 127.51098,125.0315 -0.42333,0.0423 h 0.889 z"
       style="fill:#767676;fill-opacity:1;fill-rule:evenodd;stroke:none;stroke-width:0.352778" />
    <path
       id="path4676"
       d="m 127.08765,125.07383 -0.381,0.21167 h 1.651 z"
       style="fill:#767676;fill-opacity:1;fill-rule:evenodd;stroke:none;stroke-width:0.352778" />
    <path
       id="path4677"
       d="m 127.08765,125.07383 h 0.889 l 0.381,0.21167 z"
       style="fill:#767676;fill-opacity:1;fill-rule:evenodd;stroke:none;stroke-width:0.352778" />
    <path
       id="path4678"
       d="m 126.70665,125.2855 -0.33867,0.33866 h 2.286 z"
       style="fill:#767676;fill-opacity:1;fill-rule:evenodd;stroke:none;stroke-width:0.352778" />
    <path
       id="path4679"
       d="m 126.70665,125.2855 h 1.651 l 0.29633,0.33866 z"
       style="fill:#767676;fill-opacity:1;fill-rule:evenodd;stroke:none;stroke-width:0.352778" />
    <path
       id="path4680"
       d="m 126.36798,125.62416 -0.21173,0.381 h 2.7094 z"
       style="fill:#767676;fill-opacity:1;fill-rule:evenodd;stroke:none;stroke-width:0.352778" />
    <path
       id="path4681"
       d="m 126.36798,125.62416 h 2.286 l 0.21167,0.381 z"
       style="fill:#767676;fill-opacity:1;fill-rule:evenodd;stroke:none;stroke-width:0.352778" />
    <path
       id="path4682"
       d="m 126.15625,126.00516 -0.0423,0.42334 h 2.83634 z"
       style="fill:#767676;fill-opacity:1;fill-rule:evenodd;stroke:none;stroke-width:0.352778" />
    <path
       id="path4683"
       d="m 126.15625,126.00516 h 2.7094 l 0.0847,0.42334 z"
       style="fill:#767676;fill-opacity:1;fill-rule:evenodd;stroke:none;stroke-width:0.352778" />
    <path
       id="path4684"
       d="m 126.11398,126.4285 0.0423,0.46566 h 2.7094 z"
       style="fill:#767676;fill-opacity:1;fill-rule:evenodd;stroke:none;stroke-width:0.352778" />
    <path
       id="path4685"
       d="m 126.11398,126.4285 h 2.83634 l -0.0847,0.46566 z"
       style="fill:#767676;fill-opacity:1;fill-rule:evenodd;stroke:none;stroke-width:0.352778" />
    <path
       id="path4686"
       d="m 126.15625,126.89416 0.21173,0.381 h 2.286 z"
       style="fill:#767676;fill-opacity:1;fill-rule:evenodd;stroke:none;stroke-width:0.352778" />
    <path
       id="path4687"
       d="m 126.15625,126.89416 h 2.7094 l -0.21167,0.381 z"
       style="fill:#767676;fill-opacity:1;fill-rule:evenodd;stroke:none;stroke-width:0.352778" />
    <path
       id="path4688"
       d="m 126.36798,127.27516 0.33867,0.29634 h 1.651 z"
       style="fill:#767676;fill-opacity:1;fill-rule:evenodd;stroke:none;stroke-width:0.352778" />
    <path
       id="path4689"
       d="m 126.36798,127.27516 h 2.286 l -0.29633,0.29634 z"
       style="fill:#767676;fill-opacity:1;fill-rule:evenodd;stroke:none;stroke-width:0.352778" />
    <path
       id="path4690"
       d="m 126.70665,127.5715 0.381,0.21166 h 0.889 z"
       style="fill:#767676;fill-opacity:1;fill-rule:evenodd;stroke:none;stroke-width:0.352778" />
    <path
       id="path4691"
       d="m 126.70665,127.5715 h 1.651 l -0.381,0.21166 z"
       style="fill:#767676;fill-opacity:1;fill-rule:evenodd;stroke:none;stroke-width:0.352778" />
    <path
       id="path4692"
       d="m 127.08765,127.78316 h 0.889 l -0.46567,0.0847 z"
       style="fill:#767676;fill-opacity:1;fill-rule:evenodd;stroke:none;stroke-width:0.352778" />
    <path
       id="path4693"
       d="m 128.95032,118.89317 -0.0847,-0.46567 -0.21167,-0.381 -0.29633,-0.29633 -0.381,-0.21167 -0.46567,-0.0847 -0.42333,0.0847 -0.381,0.21167 -0.33867,0.29633 -0.21173,0.381 -0.0423,0.46567 0.0423,0.42333 0.21173,0.381 0.33867,0.33866 0.381,0.21167 0.42333,0.0423 0.46567,-0.0423 0.381,-0.21167 0.29633,-0.33866 0.21167,-0.381 z"
       style="fill:none;stroke:#000000;stroke-width:0.254;stroke-linecap:round;stroke-linejoin:round;stroke-miterlimit:10;stroke-dasharray:none;stroke-opacity:1" />
    <path
       id="path4694"
       d="m 122.98125,117.45383 -0.4656,0.0847 h 0.889 z"
       style="fill:#ff0000;fill-opacity:1;fill-rule:evenodd;stroke:none;stroke-width:0.352778" />
    <path
       id="path4695"
       d="m 122.51565,117.5385 -0.381,0.21167 h 1.651 z"
       style="fill:#ff0000;fill-opacity:1;fill-rule:evenodd;stroke:none;stroke-width:0.352778" />
    <path
       id="path4696"
       d="m 122.51565,117.5385 h 0.889 l 0.381,0.21167 z"
       style="fill:#ff0000;fill-opacity:1;fill-rule:evenodd;stroke:none;stroke-width:0.352778" />
    <path
       id="path4697"
       d="m 122.13465,117.75017 -0.29633,0.29633 h 2.286 z"
       style="fill:#ff0000;fill-opacity:1;fill-rule:evenodd;stroke:none;stroke-width:0.352778" />
    <path
       id="path4698"
       d="m 122.13465,117.75017 h 1.651 l 0.33867,0.29633 z"
       style="fill:#ff0000;fill-opacity:1;fill-rule:evenodd;stroke:none;stroke-width:0.352778" />
    <path
       id="path4699"
       d="m 121.83832,118.0465 -0.21167,0.381 h 2.70933 z"
       style="fill:#ff0000;fill-opacity:1;fill-rule:evenodd;stroke:none;stroke-width:0.352778" />
    <path
       id="path4700"
       d="m 121.83832,118.0465 h 2.286 l 0.21166,0.381 z"
       style="fill:#ff0000;fill-opacity:1;fill-rule:evenodd;stroke:none;stroke-width:0.352778" />
    <path
       id="path4701"
       d="m 121.62665,118.4275 -0.0847,0.46567 h 2.83634 z"
       style="fill:#ff0000;fill-opacity:1;fill-rule:evenodd;stroke:none;stroke-width:0.352778" />
    <path
       id="path4702"
       d="m 121.62665,118.4275 h 2.70933 l 0.0423,0.46567 z"
       style="fill:#ff0000;fill-opacity:1;fill-rule:evenodd;stroke:none;stroke-width:0.352778" />
    <path
       id="path4703"
       d="m 121.54198,118.89317 0.0847,0.42333 h 2.70933 z"
       style="fill:#ff0000;fill-opacity:1;fill-rule:evenodd;stroke:none;stroke-width:0.352778" />
    <path
       id="path4704"
       d="m 121.54198,118.89317 h 2.83634 l -0.0423,0.42333 z"
       style="fill:#ff0000;fill-opacity:1;fill-rule:evenodd;stroke:none;stroke-width:0.352778" />
    <path
       id="path4705"
       d="m 121.62665,119.3165 0.21167,0.381 h 2.286 z"
       style="fill:#ff0000;fill-opacity:1;fill-rule:evenodd;stroke:none;stroke-width:0.352778" />
    <path
       id="path4706"
       d="m 121.62665,119.3165 h 2.70933 l -0.21166,0.381 z"
       style="fill:#ff0000;fill-opacity:1;fill-rule:evenodd;stroke:none;stroke-width:0.352778" />
    <path
       id="path4707"
       d="m 121.83832,119.6975 0.29633,0.33866 h 1.651 z"
       style="fill:#ff0000;fill-opacity:1;fill-rule:evenodd;stroke:none;stroke-width:0.352778" />
    <path
       id="path4708"
       d="m 121.83832,119.6975 h 2.286 l -0.33867,0.33866 z"
       style="fill:#ff0000;fill-opacity:1;fill-rule:evenodd;stroke:none;stroke-width:0.352778" />
    <path
       id="path4709"
       d="m 122.13465,120.03616 0.381,0.21167 h 0.889 z"
       style="fill:#ff0000;fill-opacity:1;fill-rule:evenodd;stroke:none;stroke-width:0.352778" />
    <path
       id="path4710"
       d="m 122.13465,120.03616 h 1.651 l -0.381,0.21167 z"
       style="fill:#ff0000;fill-opacity:1;fill-rule:evenodd;stroke:none;stroke-width:0.352778" />
    <path
       id="path4711"
       d="m 122.51565,120.24783 h 0.889 l -0.4234,0.0423 z"
       style="fill:#ff0000;fill-opacity:1;fill-rule:evenodd;stroke:none;stroke-width:0.352778" />
    <path
       id="path4712"
       d="m 122.98125,121.26383 -0.4656,0.0423 h 0.889 z"
       style="fill:#ff0000;fill-opacity:1;fill-rule:evenodd;stroke:none;stroke-width:0.352778" />
    <path
       id="path4713"
       d="m 122.51565,121.30616 -0.381,0.21167 h 1.651 z"
       style="fill:#ff0000;fill-opacity:1;fill-rule:evenodd;stroke:none;stroke-width:0.352778" />
    <path
       id="path4714"
       d="m 122.51565,121.30616 h 0.889 l 0.381,0.21167 z"
       style="fill:#ff0000;fill-opacity:1;fill-rule:evenodd;stroke:none;stroke-width:0.352778" />
    <path
       id="path4715"
       d="m 122.13465,121.51783 -0.29633,0.29633 h 2.286 z"
       style="fill:#ff0000;fill-opacity:1;fill-rule:evenodd;stroke:none;stroke-width:0.352778" />
    <path
       id="path4716"
       d="m 122.13465,121.51783 h 1.651 l 0.33867,0.29633 z"
       style="fill:#ff0000;fill-opacity:1;fill-rule:evenodd;stroke:none;stroke-width:0.352778" />
    <path
       id="path4717"
       d="m 121.83832,121.81416 -0.21167,0.42334 h 2.70933 z"
       style="fill:#ff0000;fill-opacity:1;fill-rule:evenodd;stroke:none;stroke-width:0.352778" />
    <path
       id="path4718"
       d="m 121.83832,121.81416 h 2.286 l 0.21166,0.42334 z"
       style="fill:#ff0000;fill-opacity:1;fill-rule:evenodd;stroke:none;stroke-width:0.352778" />
    <path
       id="path4719"
       d="m 121.62665,122.2375 -0.0847,0.42333 h 2.83634 z"
       style="fill:#ff0000;fill-opacity:1;fill-rule:evenodd;stroke:none;stroke-width:0.352778" />
    <path
       id="path4720"
       d="m 121.62665,122.2375 h 2.70933 l 0.0423,0.42333 z"
       style="fill:#ff0000;fill-opacity:1;fill-rule:evenodd;stroke:none;stroke-width:0.352778" />
    <path
       id="path4721"
       d="m 121.54198,122.66083 0.0847,0.42333 h 2.70933 z"
       style="fill:#ff0000;fill-opacity:1;fill-rule:evenodd;stroke:none;stroke-width:0.352778" />
    <path
       id="path4722"
       d="m 121.54198,122.66083 h 2.83634 l -0.0423,0.42333 z"
       style="fill:#ff0000;fill-opacity:1;fill-rule:evenodd;stroke:none;stroke-width:0.352778" />
    <path
       id="path4723"
       d="m 121.62665,123.08416 0.21167,0.42334 h 2.286 z"
       style="fill:#ff0000;fill-opacity:1;fill-rule:evenodd;stroke:none;stroke-width:0.352778" />
    <path
       id="path4724"
       d="m 121.62665,123.08416 h 2.70933 l -0.21166,0.42334 z"
       style="fill:#ff0000;fill-opacity:1;fill-rule:evenodd;stroke:none;stroke-width:0.352778" />
    <path
       id="path4725"
       d="m 121.83832,123.5075 0.29633,0.29633 h 1.651 z"
       style="fill:#ff0000;fill-opacity:1;fill-rule:evenodd;stroke:none;stroke-width:0.352778" />
    <path
       id="path4726"
       d="m 121.83832,123.5075 h 2.286 l -0.33867,0.29633 z"
       style="fill:#ff0000;fill-opacity:1;fill-rule:evenodd;stroke:none;stroke-width:0.352778" />
    <path
       id="path4727"
       d="m 122.13465,123.80383 0.381,0.21167 h 0.889 z"
       style="fill:#ff0000;fill-opacity:1;fill-rule:evenodd;stroke:none;stroke-width:0.352778" />
    <path
       id="path4728"
       d="m 122.13465,123.80383 h 1.651 l -0.381,0.21167 z"
       style="fill:#ff0000;fill-opacity:1;fill-rule:evenodd;stroke:none;stroke-width:0.352778" />
    <path
       id="path4729"
       d="m 122.51565,124.0155 h 0.889 l -0.4234,0.0423 z"
       style="fill:#ff0000;fill-opacity:1;fill-rule:evenodd;stroke:none;stroke-width:0.352778" />
    <path
       id="path4730"
       d="m 122.98125,125.0315 -0.4656,0.0423 h 0.889 z"
       style="fill:#ff0000;fill-opacity:1;fill-rule:evenodd;stroke:none;stroke-width:0.352778" />
    <path
       id="path4731"
       d="m 122.51565,125.07383 -0.381,0.21167 h 1.651 z"
       style="fill:#ff0000;fill-opacity:1;fill-rule:evenodd;stroke:none;stroke-width:0.352778" />
    <path
       id="path4732"
       d="m 122.51565,125.07383 h 0.889 l 0.381,0.21167 z"
       style="fill:#ff0000;fill-opacity:1;fill-rule:evenodd;stroke:none;stroke-width:0.352778" />
    <path
       id="path4733"
       d="m 122.13465,125.2855 -0.29633,0.33866 h 2.286 z"
       style="fill:#ff0000;fill-opacity:1;fill-rule:evenodd;stroke:none;stroke-width:0.352778" />
    <path
       id="path4734"
       d="m 122.13465,125.2855 h 1.651 l 0.33867,0.33866 z"
       style="fill:#ff0000;fill-opacity:1;fill-rule:evenodd;stroke:none;stroke-width:0.352778" />
    <path
       id="path4735"
       d="m 121.83832,125.62416 -0.21167,0.381 h 2.70933 z"
       style="fill:#ff0000;fill-opacity:1;fill-rule:evenodd;stroke:none;stroke-width:0.352778" />
    <path
       id="path4736"
       d="m 121.83832,125.62416 h 2.286 l 0.21166,0.381 z"
       style="fill:#ff0000;fill-opacity:1;fill-rule:evenodd;stroke:none;stroke-width:0.352778" />
    <path
       id="path4737"
       d="m 121.62665,126.00516 -0.0847,0.42334 h 2.83634 z"
       style="fill:#ff0000;fill-opacity:1;fill-rule:evenodd;stroke:none;stroke-width:0.352778" />
    <path
       id="path4738"
       d="m 121.62665,126.00516 h 2.70933 l 0.0423,0.42334 z"
       style="fill:#ff0000;fill-opacity:1;fill-rule:evenodd;stroke:none;stroke-width:0.352778" />
    <path
       id="path4739"
       d="m 121.54198,126.4285 0.0847,0.46566 h 2.70933 z"
       style="fill:#ff0000;fill-opacity:1;fill-rule:evenodd;stroke:none;stroke-width:0.352778" />
    <path
       id="path4740"
       d="m 121.54198,126.4285 h 2.83634 l -0.0423,0.46566 z"
       style="fill:#ff0000;fill-opacity:1;fill-rule:evenodd;stroke:none;stroke-width:0.352778" />
    <path
       id="path4741"
       d="m 121.62665,126.89416 0.21167,0.381 h 2.286 z"
       style="fill:#ff0000;fill-opacity:1;fill-rule:evenodd;stroke:none;stroke-width:0.352778" />
    <path
       id="path4742"
       d="m 121.62665,126.89416 h 2.70933 l -0.21166,0.381 z"
       style="fill:#ff0000;fill-opacity:1;fill-rule:evenodd;stroke:none;stroke-width:0.352778" />
    <path
       id="path4743"
       d="m 121.83832,127.27516 0.29633,0.29634 h 1.651 z"
       style="fill:#ff0000;fill-opacity:1;fill-rule:evenodd;stroke:none;stroke-width:0.352778" />
    <path
       id="path4744"
       d="m 121.83832,127.27516 h 2.286 l -0.33867,0.29634 z"
       style="fill:#ff0000;fill-opacity:1;fill-rule:evenodd;stroke:none;stroke-width:0.352778" />
    <path
       id="path4745"
       d="m 122.13465,127.5715 0.381,0.21166 h 0.889 z"
       style="fill:#ff0000;fill-opacity:1;fill-rule:evenodd;stroke:none;stroke-width:0.352778" />
    <path
       id="path4746"
       d="m 122.13465,127.5715 h 1.651 l -0.381,0.21166 z"
       style="fill:#ff0000;fill-opacity:1;fill-rule:evenodd;stroke:none;stroke-width:0.352778" />
    <path
       id="path4747"
       d="m 122.51565,127.78316 h 0.889 l -0.4234,0.0847 z"
       style="fill:#ff0000;fill-opacity:1;fill-rule:evenodd;stroke:none;stroke-width:0.352778" />
    <path
       id="path4748"
       d="m 124.37832,118.89317 -0.0423,-0.46567 -0.21166,-0.381 -0.33867,-0.29633 -0.381,-0.21167 -0.4234,-0.0847 -0.4656,0.0847 -0.381,0.21167 -0.29633,0.29633 -0.21167,0.381 -0.0847,0.46567 0.0847,0.42333 0.21167,0.381 0.29633,0.33866 0.381,0.21167 0.4656,0.0423 0.4234,-0.0423 0.381,-0.21167 0.33867,-0.33866 0.21166,-0.381 z"
       style="fill:none;stroke:#000000;stroke-width:0.254;stroke-linecap:round;stroke-linejoin:round;stroke-miterlimit:10;stroke-dasharray:none;stroke-opacity:1" />
    <path
       id="path4749"
       d="m 128.95032,122.66083 -0.0847,-0.42333 -0.21167,-0.42334 -0.29633,-0.29633 -0.381,-0.21167 -0.46567,-0.0423 -0.42333,0.0423 -0.381,0.21167 -0.33867,0.29633 -0.21173,0.42334 -0.0423,0.42333 0.0423,0.42333 0.21173,0.42334 0.33867,0.29633 0.381,0.21167 0.42333,0.0423 0.46567,-0.0423 0.381,-0.21167 0.29633,-0.29633 0.21167,-0.42334 z"
       style="fill:none;stroke:#000000;stroke-width:0.254;stroke-linecap:round;stroke-linejoin:round;stroke-miterlimit:10;stroke-dasharray:none;stroke-opacity:1" />
    <path
       id="path4750"
       d="m 124.37832,122.66083 -0.0423,-0.42333 -0.21166,-0.42334 -0.33867,-0.29633 -0.381,-0.21167 -0.4234,-0.0423 -0.4656,0.0423 -0.381,0.21167 -0.29633,0.29633 -0.21167,0.42334 -0.0847,0.42333 0.0847,0.42333 0.21167,0.42334 0.29633,0.29633 0.381,0.21167 0.4656,0.0423 0.4234,-0.0423 0.381,-0.21167 0.33867,-0.29633 0.21166,-0.42334 z"
       style="fill:none;stroke:#000000;stroke-width:0.254;stroke-linecap:round;stroke-linejoin:round;stroke-miterlimit:10;stroke-dasharray:none;stroke-opacity:1" />
    <path
       id="path4751"
       d="m 128.95032,126.4285 -0.0847,-0.42334 -0.21167,-0.381 -0.29633,-0.33866 -0.381,-0.21167 -0.46567,-0.0423 -0.42333,0.0423 -0.381,0.21167 -0.33867,0.33866 -0.21173,0.381 -0.0423,0.42334 0.0423,0.46566 0.21173,0.381 0.33867,0.29634 0.381,0.21166 0.42333,0.0847 0.46567,-0.0847 0.381,-0.21166 0.29633,-0.29634 0.21167,-0.381 z"
       style="fill:none;stroke:#000000;stroke-width:0.254;stroke-linecap:round;stroke-linejoin:round;stroke-miterlimit:10;stroke-dasharray:none;stroke-opacity:1" />
    <path
       id="path4752"
       d="m 124.37832,126.4285 -0.0423,-0.42334 -0.21166,-0.381 -0.33867,-0.33866 -0.381,-0.21167 -0.4234,-0.0423 -0.4656,0.0423 -0.381,0.21167 -0.29633,0.33866 -0.21167,0.381 -0.0847,0.42334 0.0847,0.46566 0.21167,0.381 0.29633,0.29634 0.381,0.21166 0.4656,0.0847 0.4234,-0.0847 0.381,-0.21166 0.33867,-0.29634 0.21166,-0.381 z"
       style="fill:none;stroke:#000000;stroke-width:0.254;stroke-linecap:round;stroke-linejoin:round;stroke-miterlimit:10;stroke-dasharray:none;stroke-opacity:1" />
  </g>
</svg>
